<?xml version="1.0" standalone="no"?>
<!DOCTYPE svg PUBLIC "-//W3C//DTD SVG 20010904//EN"
 "http://www.w3.org/TR/2001/REC-SVG-20010904/DTD/svg10.dtd">
<svg version="1.0" xmlns="http://www.w3.org/2000/svg"
 width="1024.000000pt" height="1024.000000pt" viewBox="0 0 1024.000000 1024.000000"
 preserveAspectRatio="xMidYMid meet">
<metadata>
Created by potrace 1.14, written by Peter Selinger 2001-2017
</metadata>
<g transform="translate(0.000000,1024.000000) scale(0.100000,-0.100000)"
fill="#000000" stroke="none">
<path d="M0 5120 l0 -5120 5120 0 5120 0 0 5120 0 5120 -1485 0 c-1147 -1
-1484 -4 -1478 -13 4 -8 1 -7 -9 1 -13 10 -70 13 -253 11 -130 -2 -238 -6
-241 -11 -3 -4 -11 -8 -17 -8 -7 0 -6 4 3 10 11 7 4 10 -25 10 -27 0 -35 -3
-26 -9 11 -7 9 -11 -9 -21 -12 -6 -24 -9 -28 -6 -3 3 0 6 6 6 7 0 12 6 12 14
0 17 -185 22 -195 6 -5 -8 -11 -8 -20 0 -17 14 -116 8 -134 -8 -12 -11 -12
-16 2 -29 13 -13 19 -14 31 -3 21 16 21 3 0 -17 -13 -13 -17 -14 -24 -3 -7 11
-11 11 -24 1 -13 -11 -20 -8 -47 18 -21 22 -26 31 -15 31 9 0 16 4 16 10 0 5
-13 8 -30 7 -16 -1 -28 -6 -25 -12 3 -5 8 -18 11 -27 3 -9 13 -19 23 -21 14
-4 14 -5 -1 -6 -10 0 -25 10 -34 25 -12 17 -20 22 -27 15 -15 -15 -27 -14 -27
3 0 8 8 16 18 18 9 2 -4 4 -31 4 l-47 1 30 -21 c33 -23 38 -36 15 -36 -8 0
-15 5 -15 10 0 6 -7 10 -15 10 -18 0 -20 -17 -2 -23 6 -2 9 -7 6 -11 -4 -4
-14 0 -22 9 -9 8 -18 11 -21 6 -8 -12 3 -41 15 -41 5 0 9 -5 9 -12 0 -9 -3 -9
-12 0 -17 17 -31 15 -25 -2 4 -10 1 -13 -9 -9 -23 9 -16 -15 9 -32 14 -9 38
-13 58 -11 l34 4 -24 -19 c-13 -11 -21 -25 -17 -34 11 -29 -12 -15 -26 15 -7
17 -19 30 -25 30 -17 0 -16 -15 2 -30 18 -15 20 -30 3 -30 -6 0 -8 3 -5 7 4 3
-3 13 -14 21 -18 12 -23 13 -30 1 -8 -12 -11 -12 -19 1 -9 13 -11 13 -19 0 -7
-10 -6 -17 2 -23 8 -6 6 -7 -6 -3 -10 3 -21 6 -23 6 -2 0 -4 7 -4 15 0 9 -8
19 -17 22 -10 4 -23 14 -30 22 -6 9 -14 13 -18 9 -10 -9 16 -45 42 -59 13 -7
23 -16 23 -21 0 -9 -29 -43 -31 -36 0 2 -2 13 -3 26 -3 26 -22 49 -32 39 -4
-4 -1 -14 7 -23 11 -13 11 -18 2 -21 -7 -3 -13 -11 -13 -19 0 -9 5 -12 10 -9
6 3 10 -1 10 -9 0 -19 26 -21 33 -3 2 7 8 8 13 3 5 -5 4 -11 -3 -13 -18 -6
-16 -23 2 -23 8 0 15 5 15 10 0 6 5 10 10 10 17 0 11 -14 -11 -29 -12 -7 -24
-9 -28 -4 -3 5 -20 18 -36 30 -25 18 -33 19 -48 8 -16 -11 -15 -14 9 -39 32
-32 20 -35 -14 -3 -17 15 -26 18 -29 10 -3 -7 -11 -13 -19 -13 -8 0 -14 -4
-14 -9 0 -5 -3 -16 -6 -25 -3 -9 -1 -16 5 -16 6 0 11 7 11 15 0 8 5 15 10 15
6 0 10 -5 10 -11 0 -6 9 -18 21 -27 20 -17 18 -59 -3 -46 -6 4 -5 10 3 15 12
8 11 11 -1 19 -21 13 -30 12 -25 -2 3 -7 1 -20 -5 -28 -7 -12 -12 -12 -22 -2
-9 9 -9 12 5 12 19 0 24 20 5 20 -12 0 -108 86 -108 96 0 14 26 -1 51 -28 26
-30 29 -31 29 -11 0 12 6 24 13 27 6 3 2 3 -11 0 -16 -4 -29 1 -41 15 -22 25
-28 26 -48 5 -14 -14 -13 -17 12 -37 15 -12 41 -35 58 -50 l30 -28 -21 -22
c-12 -11 -25 -17 -29 -13 -5 5 -2 11 5 13 6 3 12 10 12 16 0 8 -4 7 -12 -1
-16 -16 -28 -15 -28 3 0 8 5 15 12 15 7 0 -6 17 -28 39 -21 21 -43 36 -47 34
-4 -3 6 -18 22 -34 34 -32 38 -45 19 -52 -10 -4 -9 -8 2 -16 8 -5 11 -13 8
-17 -4 -3 -14 1 -23 10 -25 24 -55 39 -55 26 0 -5 4 -10 9 -10 5 0 11 -7 15
-15 7 -20 -8 -19 -28 1 -15 14 -17 14 -32 -1 -9 -9 -13 -19 -10 -23 4 -3 11 0
16 7 6 11 13 8 34 -12 14 -14 26 -29 26 -34 0 -4 -5 -2 -12 5 -8 8 -17 6 -36
-8 -32 -26 -47 -26 -25 0 10 11 24 20 32 20 12 0 12 3 3 12 -10 10 -15 10 -22
-1 -7 -12 -11 -12 -25 2 -15 15 -15 18 -1 33 22 21 20 33 -4 27 -11 -3 -20 -1
-20 5 0 6 -8 19 -17 28 -17 17 -17 18 0 11 13 -5 17 -3 14 5 -2 7 -10 13 -18
13 -23 1 -55 23 -45 32 5 4 11 2 13 -4 5 -15 33 -17 33 -3 0 6 5 10 10 10 6 0
10 -9 10 -20 0 -11 5 -20 11 -20 8 0 7 -5 -1 -15 -20 -25 -4 -29 21 -6 25 23
39 27 39 11 0 -5 -4 -10 -10 -10 -5 0 -10 -7 -10 -15 0 -8 5 -15 10 -15 6 0
10 7 10 15 0 19 24 19 40 0 7 -9 15 -14 17 -11 2 2 -14 22 -37 46 -40 42 -52
67 -26 57 8 -3 17 1 20 10 4 9 9 13 13 10 3 -4 0 -13 -7 -22 -7 -9 -9 -19 -5
-23 4 -4 10 -1 12 6 3 6 9 12 15 12 6 0 19 9 29 21 12 14 24 19 38 14 12 -4
21 -2 21 4 0 6 -5 11 -11 11 -5 0 -8 4 -5 9 11 18 -20 32 -48 21 -25 -9 -36
-30 -16 -30 6 0 10 5 10 10 0 6 8 10 17 10 15 0 14 -4 -6 -22 -16 -16 -25 -19
-28 -10 -3 6 -9 12 -15 12 -12 0 -58 50 -58 63 0 5 -4 5 -10 2 -5 -3 -10 -1
-10 4 0 6 -7 11 -15 11 -23 0 -18 -17 8 -24 29 -8 73 -64 60 -77 -6 -6 -17 2
-31 21 -12 16 -32 35 -45 41 -22 12 -22 12 -3 -10 28 -32 10 -39 -19 -7 -29
31 -30 36 -10 36 8 0 15 5 15 10 0 13 -27 13 -35 0 -5 -8 -11 -7 -21 1 -10 8
-14 8 -14 1 0 -6 9 -16 20 -22 11 -6 18 -15 15 -21 -4 -5 1 -9 9 -9 19 0 29
-17 20 -32 -5 -8 -20 3 -45 32 -29 34 -35 47 -27 57 6 8 7 17 3 21 -4 4 -10 1
-12 -5 -7 -19 -24 -16 -21 3 2 9 -5 21 -14 27 -14 9 -20 8 -32 -8 -8 -11 -12
-22 -9 -25 2 -3 11 3 18 13 13 18 32 7 20 -12 -3 -5 7 -19 21 -30 15 -12 23
-21 18 -21 -5 0 0 -7 11 -16 16 -12 17 -18 8 -34 -10 -14 -10 -20 0 -23 7 -2
9 -7 6 -11 -6 -6 -79 57 -79 69 0 11 29 4 33 -7 2 -7 7 -11 10 -8 3 3 -1 13
-8 23 -11 15 -17 17 -35 7 -18 -9 -19 -14 -9 -26 16 -20 -6 -36 -38 -27 -28 7
-29 -6 -3 -35 34 -37 8 -24 -35 16 -44 42 -68 54 -90 46 -18 -7 -20 -34 -3
-34 9 0 8 -3 -1 -12 -11 -10 -14 -10 -18 0 -6 16 -23 15 -47 -3 -19 -14 -19
-15 9 -39 16 -14 25 -29 21 -33 -5 -4 -11 -2 -13 5 -3 6 -11 12 -18 12 -7 0
-15 -6 -18 -12 -2 -7 -8 -9 -13 -5 -5 4 -2 12 5 16 11 7 11 12 -1 30 -14 20
-17 20 -31 6 -9 -8 -21 -15 -28 -15 -10 0 -10 -3 -1 -12 10 -10 15 -10 22 2 5
8 12 11 17 7 4 -5 1 -12 -7 -18 -13 -8 -13 -10 0 -19 12 -7 12 -12 2 -22 -9
-9 -12 -9 -12 3 0 8 -13 22 -29 32 -16 9 -41 31 -55 47 -13 17 -33 30 -43 30
-16 -1 -16 -2 2 -12 24 -13 35 -28 35 -47 0 -11 -3 -11 -15 -1 -8 7 -12 16 -9
21 3 5 -2 9 -11 9 -9 0 -25 10 -35 23 -10 12 -22 19 -26 15 -7 -7 51 -68 65
-68 4 0 14 -11 21 -25 13 -25 40 -35 40 -15 0 6 -7 10 -16 10 -9 0 -14 5 -12
12 6 16 28 23 28 8 0 -14 25 -40 39 -40 6 0 11 -4 11 -10 0 -5 10 -14 22 -21
18 -10 20 -9 15 5 -4 10 -1 16 8 16 18 0 19 -12 3 -28 -10 -10 -10 -15 2 -22
8 -5 11 -12 7 -16 -4 -4 -18 5 -33 21 -19 20 -28 25 -37 16 -14 -14 -27 -14
-27 -1 0 6 7 10 16 10 14 0 14 3 4 15 -7 8 -16 15 -21 15 -5 0 -9 -7 -9 -15 0
-20 -10 -19 -26 2 -7 10 -15 15 -19 11 -4 -4 7 -20 23 -36 29 -29 33 -54 5
-30 -7 6 -17 8 -20 4 -4 -4 -1 -11 7 -16 8 -5 11 -12 8 -16 -4 -3 -14 1 -24
10 -12 12 -13 20 -5 30 8 10 5 16 -14 26 -27 14 -35 43 -10 34 21 -8 19 9 -4
30 -10 9 -25 14 -35 10 -9 -3 -16 -2 -16 4 0 6 6 12 13 15 8 3 6 10 -8 21 -26
20 -41 21 -25 1 15 -17 7 -31 -10 -20 -7 4 -10 19 -6 36 3 16 1 29 -4 29 -6 0
-10 5 -10 10 0 6 8 10 17 10 13 0 14 3 6 11 -9 9 -16 7 -30 -6 -13 -13 -14
-20 -5 -23 13 -4 17 -22 4 -22 -5 0 -18 9 -30 21 -15 13 -29 18 -42 14 -11 -4
-20 -2 -20 4 0 6 -7 11 -15 11 -8 0 -15 5 -15 10 0 6 5 10 11 10 6 0 24 14 41
32 27 29 32 30 51 19 21 -13 21 -12 -1 10 -19 20 -24 22 -32 9 -5 -8 -12 -11
-17 -7 -4 5 -1 12 7 17 13 8 11 12 -7 25 -12 8 -29 23 -38 31 -12 12 -19 13
-29 5 -10 -8 -19 -6 -37 10 -13 11 -31 25 -39 29 -8 5 -11 12 -7 16 4 4 13 2
19 -4 7 -7 16 -12 21 -12 5 0 2 6 -5 13 -7 7 -30 13 -50 13 -21 0 -32 -3 -26
-7 7 -5 10 -11 6 -14 -3 -4 -18 1 -32 10 -14 9 -30 15 -37 13 -6 -2 11 -18 38
-35 53 -35 123 -103 106 -103 -7 0 -18 8 -25 18 -7 9 -26 26 -43 36 -16 11
-41 30 -54 43 -13 12 -32 23 -42 23 -11 0 -19 5 -19 10 0 6 -7 10 -15 10 -8 0
-15 -4 -15 -10 0 -5 7 -10 15 -10 8 0 15 -4 15 -9 0 -12 -59 -9 -78 3 -18 11
-29 -1 -14 -16 15 -15 16 -31 1 -22 -6 3 -15 1 -19 -6 -6 -10 -15 -6 -34 15
-14 15 -30 25 -34 21 -4 -4 7 -19 23 -32 23 -18 26 -24 13 -24 -10 0 -18 -4
-18 -10 0 -14 7 -13 36 6 18 12 28 14 36 6 8 -8 3 -13 -18 -18 -16 -4 -32 -11
-35 -16 -3 -5 -14 1 -24 12 -10 11 -13 20 -7 20 7 0 12 5 12 10 0 6 -6 10 -14
10 -8 0 -17 6 -20 13 -3 8 -8 7 -16 -5 -6 -10 -18 -18 -27 -18 -13 0 -13 3 -3
15 10 13 9 15 -9 15 -24 0 -25 -4 -10 -31 7 -14 16 -18 32 -14 18 5 19 4 7 -4
-13 -10 -13 -12 0 -20 8 -6 11 -13 8 -16 -8 -8 -78 59 -78 74 0 5 5 11 11 13
20 7 -9 48 -34 48 -17 0 -19 -2 -7 -10 8 -5 11 -12 7 -16 -4 -4 -16 1 -27 11
-31 28 -36 10 -6 -20 14 -14 26 -31 26 -37 0 -7 -19 7 -42 30 -37 38 -58 51
-58 37 0 -3 18 -23 40 -45 39 -39 55 -65 25 -40 -24 20 -36 1 -13 -22 16 -16
22 -18 29 -7 7 12 11 11 26 -3 16 -17 16 -18 0 -18 -11 0 -14 -5 -10 -17 6
-16 5 -16 -10 -4 -22 17 -34 7 -17 -14 8 -10 9 -15 1 -15 -6 0 -11 5 -11 10 0
6 -5 10 -10 10 -6 0 -26 16 -46 35 -19 19 -30 35 -25 35 6 0 21 -11 35 -25 23
-23 46 -33 46 -20 0 3 -21 26 -47 50 -26 25 -42 45 -36 45 5 0 18 -9 28 -20
12 -13 22 -17 28 -11 6 6 -3 21 -24 41 -25 23 -41 30 -62 27 -15 -2 -30 0 -33
5 -3 4 -13 8 -21 8 -13 0 -11 -6 10 -28 40 -41 33 -46 -9 -6 -29 27 -40 32
-51 23 -10 -9 -20 -9 -38 -1 -19 9 -25 9 -25 0 0 -9 -3 -9 -12 0 -14 14 -42
16 -33 2 3 -5 1 -10 -4 -10 -6 0 -11 4 -11 10 0 6 -663 10 -1880 10 l-1880 0
0 -5120z m6566 5094 c18 -14 18 -14 -6 -3 -31 14 -36 19 -24 19 6 0 19 -7 30
-16z m-2826 -4 c0 -5 -2 -10 -4 -10 -3 0 -8 5 -11 10 -3 6 -1 10 4 10 6 0 11
-4 11 -10z m2680 0 c0 -5 -2 -10 -4 -10 -3 0 -8 5 -11 10 -3 6 -1 10 4 10 6 0
11 -4 11 -10z m40 -11 c-13 -8 -13 -10 0 -18 8 -6 12 -12 10 -15 -3 -2 -14 2
-24 10 -20 14 -20 14 0 28 10 8 21 12 24 10 2 -3 -2 -9 -10 -15z m-2552 -9 c7
-11 8 -20 4 -20 -5 0 -17 9 -27 20 -14 15 -15 20 -4 20 8 0 20 -9 27 -20z
m708 -7 c16 -16 41 -35 54 -44 14 -9 22 -20 18 -24 -3 -4 -16 3 -27 14 -12 12
-25 21 -31 21 -5 0 -10 3 -10 8 0 4 -10 12 -22 17 -22 10 -37 35 -21 35 5 0
22 -12 39 -27z m-118 8 c9 -5 0 -11 -30 -16 -24 -4 -46 -7 -50 -6 -5 0 -8 -4
-8 -10 0 -5 -5 -7 -10 -4 -15 9 16 36 33 29 8 -3 18 -1 22 5 7 13 25 14 43 2z
m1712 -4 c0 -14 -39 -41 -48 -33 -6 6 28 44 41 45 4 1 7 -5 7 -12z m-2495 -7
c3 -5 1 -10 -4 -10 -6 0 -11 5 -11 10 0 6 2 10 4 10 3 0 8 -4 11 -10z m60 0
c3 -5 -1 -10 -9 -10 -9 0 -16 5 -16 10 0 6 4 10 9 10 6 0 13 -4 16 -10z m45 0
c0 -5 -4 -10 -10 -10 -5 0 -10 5 -10 10 0 6 5 10 10 10 6 0 10 -4 10 -10z
m2795 0 c3 -5 2 -10 -4 -10 -5 0 -13 5 -16 10 -3 6 -2 10 4 10 5 0 13 -4 16
-10z m105 0 c0 -5 -7 -7 -15 -4 -8 4 -15 8 -15 10 0 2 7 4 15 4 8 0 15 -4 15
-10z m-300 -10 c0 -5 -4 -10 -10 -10 -5 0 -10 5 -10 10 0 6 5 10 10 10 6 0 10
-4 10 -10z m160 0 c0 -5 -5 -10 -11 -10 -5 0 -7 5 -4 10 3 6 8 10 11 10 2 0 4
-4 4 -10z m-2630 -9 c0 -6 -4 -12 -8 -15 -5 -3 -9 1 -9 9 0 8 4 15 9 15 4 0 8
-4 8 -9z m50 -1 c0 -5 -2 -10 -4 -10 -3 0 -8 5 -11 10 -3 6 -1 10 4 10 6 0 11
-4 11 -10z m490 -11 c0 -5 -4 -9 -10 -9 -5 0 -10 7 -10 16 0 8 5 12 10 9 6 -3
10 -10 10 -16z m43 12 c52 -41 91 -81 84 -87 -4 -4 -15 2 -23 15 -9 12 -34 36
-57 52 -22 16 -35 29 -28 29 6 0 17 -4 24 -9z m1677 -21 c-27 -21 -40 -25 -40
-12 0 9 53 40 60 35 3 -3 -6 -13 -20 -23z m310 20 c-20 -13 -33 -13 -25 0 3 6
14 10 23 10 15 0 15 -2 2 -10z m315 0 c3 -5 1 -10 -4 -10 -6 0 -11 5 -11 10 0
6 2 10 4 10 3 0 8 -4 11 -10z m-3045 -10 c0 -5 -2 -10 -4 -10 -3 0 -8 5 -11
10 -3 6 -1 10 4 10 6 0 11 -4 11 -10z m50 0 c0 -5 -2 -10 -4 -10 -3 0 -8 5
-11 10 -3 6 -1 10 4 10 6 0 11 -4 11 -10z m330 -5 c11 -13 10 -14 -4 -9 -9 3
-16 10 -16 15 0 13 6 11 20 -6z m2139 -15 c13 -17 30 -30 39 -30 12 0 13 -3 5
-11 -9 -9 -21 -3 -47 24 -20 19 -36 38 -36 41 0 14 17 4 39 -24z m86 20 c3 -5
1 -10 -4 -10 -6 0 -11 5 -11 10 0 6 2 10 4 10 3 0 8 -4 11 -10z m-2434 -23
c-10 -9 -11 -8 -5 6 3 10 9 15 12 12 3 -3 0 -11 -7 -18z m495 8 c4 -8 12 -15
20 -15 8 0 14 -4 14 -10 0 -5 -7 -10 -15 -10 -23 0 -18 -16 11 -39 15 -12 21
-21 15 -21 -12 0 -81 65 -81 76 0 2 9 0 20 -6 24 -13 26 -3 3 22 -10 11 -12
18 -4 18 6 0 14 -7 17 -15z m254 5 c0 -5 -2 -10 -4 -10 -3 0 -8 5 -11 10 -3 6
-1 10 4 10 6 0 11 -4 11 -10z m1650 0 c8 -5 11 -12 7 -17 -5 -4 -11 -3 -15 3
-4 6 -14 14 -22 17 -13 5 -13 5 0 6 8 0 22 -3 30 -9z m175 -6 c-9 -9 -19 -13
-23 -10 -3 4 0 11 8 16 24 15 33 11 15 -6z m125 6 c0 -5 -4 -10 -10 -10 -5 0
-10 5 -10 10 0 6 5 10 10 10 6 0 10 -4 10 -10z m-2795 -10 c3 -5 1 -10 -4 -10
-6 0 -11 5 -11 10 0 6 2 10 4 10 3 0 8 -4 11 -10z m50 0 c3 -5 1 -10 -4 -10
-6 0 -11 5 -11 10 0 6 2 10 4 10 3 0 8 -4 11 -10z m404 -40 c5 0 11 5 13 12 3
8 14 3 32 -15 15 -15 23 -27 17 -27 -5 0 -17 7 -26 16 -13 13 -18 14 -31 3
-13 -10 -17 -10 -24 1 -5 8 -12 11 -16 7 -4 -3 -1 -13 6 -22 18 -22 3 -19 -22
5 -19 17 -19 20 -5 20 19 0 23 15 7 25 -5 3 -10 11 -10 17 0 6 11 -1 25 -16
13 -14 28 -26 34 -26z m196 40 c3 -5 1 -10 -4 -10 -6 0 -11 5 -11 10 0 6 2 10
4 10 3 0 8 -4 11 -10z m1749 -6 c9 -24 0 -29 -19 -11 -19 19 -19 27 -1 27 8 0
17 -7 20 -16z m161 6 c3 -5 -1 -10 -10 -10 -9 0 -13 5 -10 10 3 6 8 10 10 10
2 0 7 -4 10 -10z m325 0 c0 -5 -2 -10 -4 -10 -3 0 -8 5 -11 10 -3 6 -1 10 4
10 6 0 11 -4 11 -10z m-2350 -15 c-7 -8 -17 -15 -22 -15 -6 0 -5 7 2 15 7 8
17 15 22 15 6 0 5 -7 -2 -15z m340 5 c0 -5 -8 -10 -17 -10 -16 -1 -16 -2 1
-15 19 -14 19 -15 -4 -35 -26 -22 -40 -26 -40 -9 0 5 4 8 8 5 4 -2 13 4 20 15
10 15 10 19 -1 19 -7 0 -18 -5 -24 -11 -8 -8 -13 -8 -18 1 -4 6 -5 12 -4 13 2
1 18 9 34 19 36 20 45 21 45 8z m1840 0 c0 -5 -2 -10 -4 -10 -3 0 -8 5 -11 10
-3 6 -1 10 4 10 6 0 11 -4 11 -10z m55 0 c3 -5 -1 -10 -9 -10 -9 0 -16 5 -16
10 0 6 4 10 9 10 6 0 13 -4 16 -10z m-2069 -47 c-3 -4 -13 2 -21 13 -22 29
-18 41 6 15 12 -12 18 -25 15 -28z m1575 30 c13 -16 12 -17 -3 -4 -10 7 -18
15 -18 17 0 8 8 3 21 -13z m86 1 c14 -14 14 -16 -3 -29 -11 -7 -21 -11 -24 -9
-2 3 2 10 10 15 11 8 12 12 3 16 -13 5 -18 23 -7 23 3 0 12 -7 21 -16z m211
-58 c-16 -15 -22 -16 -28 -6 -7 11 -14 10 -35 -4 -15 -10 -29 -16 -31 -13 -10
10 48 38 66 32 11 -4 20 -4 20 -1 0 10 -40 46 -51 46 -5 0 -7 4 -4 10 3 5 23
-3 44 -18 39 -27 39 -27 19 -46z m12 64 c0 -5 -5 -10 -11 -10 -5 0 -7 5 -4 10
3 6 8 10 11 10 2 0 4 -4 4 -10z m-2605 -10 c3 -6 -1 -7 -9 -4 -18 7 -21 14 -7
14 6 0 13 -4 16 -10z m45 0 c0 -5 -2 -10 -4 -10 -3 0 -8 5 -11 10 -3 6 -1 10
4 10 6 0 11 -4 11 -10z m45 0 c3 -5 1 -10 -4 -10 -6 0 -11 5 -11 10 0 6 2 10
4 10 3 0 8 -4 11 -10z m2175 0 c0 -5 -4 -10 -10 -10 -5 0 -10 5 -10 10 0 6 5
10 10 10 6 0 10 -4 10 -10z m640 0 c0 -5 -5 -10 -11 -10 -5 0 -7 5 -4 10 3 6
8 10 11 10 2 0 4 -4 4 -10z m-2530 -10 c0 -5 -2 -10 -4 -10 -3 0 -8 5 -11 10
-3 6 -1 10 4 10 6 0 11 -4 11 -10z m295 0 c3 -5 1 -10 -4 -10 -6 0 -11 5 -11
10 0 6 2 10 4 10 3 0 8 -4 11 -10z m-325 -21 c0 -6 -4 -7 -10 -4 -5 3 -10 11
-10 16 0 6 5 7 10 4 6 -3 10 -11 10 -16z m238 1 c7 -11 10 -20 7 -20 -3 0 -15
9 -27 20 -16 14 -18 20 -7 20 8 0 20 -9 27 -20z m2107 10 c3 -5 2 -10 -4 -10
-5 0 -13 5 -16 10 -3 6 -2 10 4 10 5 0 13 -4 16 -10z m-2651 -25 c9 -14 15
-25 13 -25 -2 0 -13 11 -25 25 -12 14 -18 25 -13 25 5 0 16 -11 25 -25z m2376
15 c0 -5 -5 -10 -11 -10 -5 0 -7 5 -4 10 3 6 8 10 11 10 2 0 4 -4 4 -10z m120
6 c0 -3 -4 -8 -10 -11 -5 -3 -10 -1 -10 4 0 6 5 11 10 11 6 0 10 -2 10 -4z
m-2110 -38 c0 -12 -10 -9 -26 6 -20 21 -17 28 6 14 11 -7 20 -16 20 -20z m270
28 c0 -3 -4 -8 -10 -11 -5 -3 -10 -1 -10 4 0 6 5 11 10 11 6 0 10 -2 10 -4z
m65 -6 c5 -8 12 -7 23 2 12 11 16 11 20 -1 2 -7 13 -22 23 -32 11 -11 15 -19
10 -19 -6 0 -13 5 -16 10 -13 21 -24 9 -13 -15 11 -25 28 -34 28 -15 0 6 5 10
10 10 7 0 7 -7 -1 -21 -11 -21 -11 -21 -40 7 -22 21 -26 30 -17 41 6 7 7 17 3
21 -4 4 -10 1 -12 -5 -3 -7 -11 -13 -18 -13 -7 0 -15 -6 -17 -12 -3 -9 -10 -8
-22 5 -10 10 -15 21 -11 25 4 4 10 1 12 -5 8 -22 25 -14 18 7 -7 21 9 28 20
10z m1930 -20 c12 -19 -12 -10 -31 11 -19 22 -19 22 3 10 12 -6 25 -16 28 -21z
m-2595 5 c7 -9 8 -15 2 -15 -5 0 -12 7 -16 15 -3 8 -4 15 -2 15 2 0 9 -7 16
-15z m146 -12 c13 -15 21 -29 19 -31 -4 -5 -20 10 -44 41 -22 28 0 19 25 -10z
m84 17 c0 -5 -4 -10 -9 -10 -6 0 -13 5 -16 10 -3 6 1 10 9 10 9 0 16 -4 16
-10z m2010 -1 c0 -5 -4 -7 -10 -4 -5 3 -10 -1 -10 -9 0 -19 11 -21 28 -4 8 8
16 5 31 -13 16 -19 22 -22 32 -11 17 16 27 15 31 -3 2 -11 7 -12 18 -4 11 8
12 12 2 16 -8 3 -5 11 12 24 31 24 48 24 19 0 l-22 -19 26 -26 c20 -20 22 -26
9 -26 -9 0 -16 5 -16 10 0 6 -7 10 -15 10 -8 0 -15 -4 -15 -10 0 -5 5 -10 11
-10 5 0 7 -5 4 -10 -4 -7 -16 -1 -31 15 l-24 26 -22 -20 c-12 -12 -24 -18 -27
-15 -3 3 1 9 8 14 21 12 -13 43 -38 35 -25 -8 -51 22 -30 36 19 12 29 11 29
-2z m66 -27 c-4 -3 -11 0 -16 8 -15 24 -11 33 6 15 9 -9 13 -19 10 -23z m44
28 c0 -5 -4 -10 -10 -10 -5 0 -10 5 -10 10 0 6 5 10 10 10 6 0 10 -4 10 -10z
m-2058 -20 c12 -11 17 -20 11 -20 -5 0 -18 9 -28 20 -10 11 -15 20 -11 20 4 0
16 -9 28 -20z m2265 0 c29 -22 24 -27 -7 -7 -17 10 -22 9 -30 -3 -5 -8 -12
-11 -15 -8 -6 6 14 37 23 38 2 0 15 -9 29 -20z m-2350 -10 c7 -10 9 -21 5 -24
-4 -2 -12 7 -19 20 -13 29 -3 32 14 4z m180 14 c-3 -3 -12 -4 -19 -1 -8 3 -5
6 6 6 11 1 17 -2 13 -5z m48 -4 c3 -5 -1 -10 -9 -10 -9 0 -16 -5 -16 -11 0 -5
-5 -7 -10 -4 -8 5 -7 11 1 21 14 16 25 18 34 4z m112 -16 c14 -14 22 -28 19
-31 -3 -4 -7 -4 -8 -2 -2 2 -14 16 -27 32 -31 34 -19 36 16 1z m2103 16 c0 -5
-4 -10 -10 -10 -5 0 -10 5 -10 10 0 6 5 10 10 10 6 0 10 -4 10 -10z m60 6 c0
-3 -4 -8 -10 -11 -5 -3 -10 -1 -10 4 0 6 5 11 10 11 6 0 10 -2 10 -4z m440 -6
c0 -5 -5 -10 -11 -10 -5 0 -7 5 -4 10 3 6 8 10 11 10 2 0 4 -4 4 -10z m-2892
-25 c-3 -3 -9 2 -12 12 -6 14 -5 15 5 6 7 -7 10 -15 7 -18z m1861 -26 c-11 -7
-8 -14 13 -36 15 -15 31 -24 35 -19 4 4 1 11 -7 16 -8 5 -11 12 -7 16 3 4 14
1 23 -6 13 -12 17 -11 25 1 8 12 10 12 18 -1 6 -8 13 -11 17 -8 3 4 -1 15 -11
24 -14 14 -18 15 -25 4 -7 -11 -11 -11 -26 1 -13 11 -18 11 -21 2 -3 -7 -12
-13 -21 -13 -14 0 -13 4 5 21 13 13 26 18 34 13 19 -11 62 -12 77 -1 8 6 12 6
12 -1 0 -6 -6 -12 -12 -15 -9 -3 -4 -11 12 -25 14 -11 21 -24 17 -28 -4 -5
-12 -2 -17 6 -5 8 -12 11 -16 7 -4 -4 3 -18 16 -32 13 -14 20 -25 16 -25 -4 0
-21 14 -36 30 -33 36 -43 38 -36 8 3 -13 3 -17 0 -10 -3 6 -13 12 -22 12 -12
0 -13 -3 -4 -12 19 -19 14 -30 -5 -13 -10 8 -35 27 -55 43 l-38 30 23 15 c18
13 19 16 5 16 -18 1 -23 12 -11 24 3 4 13 -3 21 -14 12 -18 13 -23 1 -30z
m337 34 c-4 -9 -1 -20 6 -24 7 -4 9 -11 6 -15 -4 -3 -14 1 -23 10 -13 13 -14
18 -3 30 17 20 22 20 14 -1z m-2516 -3 c0 -5 -2 -10 -4 -10 -3 0 -8 5 -11 10
-3 6 -1 10 4 10 6 0 11 -4 11 -10z m180 0 c0 -5 -5 -10 -11 -10 -5 0 -7 5 -4
10 3 6 8 10 11 10 2 0 4 -4 4 -10z m491 -7 c11 -13 11 -17 2 -20 -7 -3 -13
-11 -13 -19 0 -8 -4 -14 -10 -14 -5 0 -10 7 -10 15 0 8 5 15 10 15 14 0 12 27
-2 33 -8 4 -9 6 -2 6 6 1 18 -6 25 -16z m2119 7 c0 -5 -2 -10 -4 -10 -3 0 -8
5 -11 10 -3 6 -1 10 4 10 6 0 11 -4 11 -10z m-2275 -10 c3 -5 1 -10 -4 -10 -6
0 -11 5 -11 10 0 6 2 10 4 10 3 0 8 -4 11 -10z m2115 -32 c0 -4 -9 -3 -20 4
-11 7 -20 19 -20 27 0 11 5 10 20 -4 11 -10 20 -22 20 -27z m-2277 12 c3 -11
3 -20 0 -20 -10 0 -32 28 -26 34 11 11 21 6 26 -14z m66 -15 c38 -40 27 -48
-13 -9 -22 23 -33 44 -23 44 1 0 17 -16 36 -35z m68 -31 c-3 -3 -14 6 -25 20
-11 15 -25 26 -32 26 -6 0 -8 5 -4 11 4 7 17 0 36 -20 17 -18 28 -34 25 -37z
m253 62 c0 -11 -19 -15 -25 -6 -3 5 1 10 9 10 9 0 16 -2 16 -4z m1400 -2 c0
-10 -28 -34 -39 -34 -6 0 -11 7 -11 15 0 9 6 12 15 9 8 -4 15 -1 15 5 0 6 5
11 10 11 6 0 10 -3 10 -6z m-1940 -14 c0 -5 -4 -10 -10 -10 -5 0 -10 5 -10 10
0 6 5 10 10 10 6 0 10 -4 10 -10z m370 -22 c0 -12 -10 -9 -26 6 -20 21 -17 28
6 14 11 -7 20 -16 20 -20z m275 22 c3 -5 1 -10 -4 -10 -6 0 -11 5 -11 10 0 6
2 10 4 10 3 0 8 -4 11 -10z m58 -10 c18 -22 21 -30 10 -30 -11 1 -46 50 -36
50 5 0 16 -9 26 -20z m448 7 c-1 -12 -15 -9 -19 4 -3 6 1 10 8 8 6 -3 11 -8
11 -12z m335 -53 c-9 -8 -16 -12 -16 -7 0 5 6 15 12 21 10 10 10 15 -1 21 -8
5 -10 14 -5 22 5 9 10 6 17 -14 6 -20 5 -31 -7 -43z m894 48 c0 -12 -3 -12
-15 -2 -8 7 -15 13 -15 15 0 1 7 2 15 2 8 0 15 -7 15 -15z m630 8 c0 -5 -2
-10 -4 -10 -3 0 -8 5 -11 10 -3 6 -1 10 4 10 6 0 11 -4 11 -10z m-2473 -36
c38 -38 37 -40 -12 -65 -16 -8 -15 -6 3 10 l24 21 -31 31 c-17 17 -31 32 -31
35 0 10 13 1 47 -32z m50 -1 c7 -6 13 -17 13 -23 0 -7 -13 2 -30 20 -16 18
-30 34 -30 37 0 5 24 -12 47 -34z m1903 33 c0 -3 -4 -8 -10 -11 -5 -3 -10 -1
-10 4 0 6 5 11 10 11 6 0 10 -2 10 -4z m85 -16 c-10 -11 -22 -20 -26 -20 -5 0
-1 9 8 20 10 11 22 20 27 20 5 0 1 -9 -9 -20z m-2715 -5 c7 -9 11 -17 8 -20
-2 -2 -12 4 -21 15 -9 11 -13 20 -8 20 5 0 14 -7 21 -15z m170 -62 c0 -4 -16
8 -35 27 -19 19 -35 37 -35 41 0 4 16 -8 35 -27 19 -18 35 -37 35 -41z m297
62 c8 -9 13 -18 11 -21 -3 -2 -13 5 -23 16 -21 23 -11 27 12 5z m1086 3 c3
-10 7 -10 19 -1 21 18 29 5 10 -18 -15 -17 -17 -17 -34 -2 -10 9 -18 20 -18
25 0 13 18 9 23 -4z m762 -4 c-9 -9 -19 -13 -23 -10 -3 4 0 11 8 16 24 15 33
11 15 -6z m-2100 -4 c3 -5 1 -10 -4 -10 -6 0 -11 5 -11 10 0 6 2 10 4 10 3 0
8 -4 11 -10z m50 0 c3 -5 2 -10 -4 -10 -5 0 -13 5 -16 10 -3 6 -2 10 4 10 5 0
13 -4 16 -10z m525 0 c5 8 12 11 16 8 3 -4 -1 -14 -10 -23 -14 -15 -18 -15
-31 -1 -20 19 -19 32 1 15 13 -10 17 -10 24 1z m552 -20 c15 -16 33 -30 40
-30 6 0 9 -3 6 -6 -4 -3 3 -15 14 -26 17 -17 22 -18 29 -7 7 11 15 7 38 -18
26 -30 51 -43 51 -27 0 4 -16 22 -36 41 -20 19 -34 37 -30 40 5 6 96 -81 96
-92 0 -2 -7 -2 -15 1 -17 7 -21 -11 -5 -21 6 -4 4 -12 -5 -22 -9 -8 -19 -12
-23 -9 -3 4 0 11 7 16 11 6 8 14 -15 34 -31 27 -44 32 -44 16 0 -5 5 -10 10
-10 6 0 10 -6 10 -12 0 -7 -12 0 -25 15 -14 15 -25 24 -25 20 0 -4 -5 0 -11
10 -13 22 -29 22 -29 0 0 -14 -4 -12 -25 7 -14 13 -25 18 -25 11 0 -7 16 -28
36 -48 20 -19 33 -38 29 -41 -4 -4 -10 -1 -12 6 -5 12 -43 18 -43 6 0 -10 28
-34 39 -34 6 0 11 -6 11 -14 0 -8 6 -16 13 -19 6 -2 9 -8 5 -12 -4 -4 -21 9
-38 29 -18 20 -39 36 -49 36 -13 1 -12 4 7 20 l22 18 -27 22 c-22 17 -25 23
-13 30 12 7 10 14 -13 38 -28 30 -34 42 -17 42 6 0 10 -7 10 -15 0 -8 8 -15
18 -15 10 0 25 -11 32 -25 7 -14 19 -25 27 -25 22 0 15 13 -27 53 -22 20 -40
39 -40 42 0 12 15 3 42 -25z m128 9 c0 -6 -4 -7 -10 -4 -5 3 -10 11 -10 16 0
6 5 7 10 4 6 -3 10 -11 10 -16z m1130 11 c0 -5 -5 -10 -11 -10 -5 0 -7 5 -4
10 3 6 8 10 11 10 2 0 4 -4 4 -10z m315 0 c3 -5 1 -10 -4 -10 -6 0 -11 5 -11
10 0 6 2 10 4 10 3 0 8 -4 11 -10z m-2585 -10 c0 -5 -4 -10 -10 -10 -5 0 -10
5 -10 10 0 6 5 10 10 10 6 0 10 -4 10 -10z m240 0 c0 -5 -6 -10 -14 -10 -8 0
-17 -7 -20 -16 -4 -9 -9 -14 -13 -10 -7 7 25 46 39 46 4 0 8 -4 8 -10z m1810
-22 c0 -12 -6 -9 -26 13 -19 22 -19 22 4 8 12 -8 22 -17 22 -21z m277 26 c-3
-3 -12 -4 -19 -1 -8 3 -5 6 6 6 11 1 17 -2 13 -5z m-2797 -14 c0 -5 -5 -10
-11 -10 -5 0 -7 5 -4 10 3 6 8 10 11 10 2 0 4 -4 4 -10z m1423 -41 c10 -9 14
-19 9 -23 -6 -3 -12 1 -16 9 -3 8 -12 15 -21 15 -8 0 -15 7 -15 15 0 9 -6 12
-15 9 -10 -4 -15 0 -15 11 0 16 2 16 27 -1 15 -9 36 -25 46 -35z m161 36 c3
-8 1 -15 -3 -15 -5 0 -11 7 -15 15 -3 8 -1 15 3 15 5 0 11 -7 15 -15z m966 5
c0 -5 -2 -10 -4 -10 -3 0 -8 5 -11 10 -3 6 -1 10 4 10 6 0 11 -4 11 -10z m60
0 c0 -5 -7 -10 -15 -10 -8 0 -15 -5 -15 -11 0 -5 -5 -7 -11 -4 -6 5 -4 12 8
21 22 16 33 18 33 4z m50 0 c0 -5 -4 -10 -10 -10 -5 0 -10 5 -10 10 0 6 5 10
10 10 6 0 10 -4 10 -10z m85 -28 c-3 -3 -16 5 -28 17 l-22 23 28 -17 c15 -10
25 -20 22 -23z m280 28 c3 -5 1 -10 -4 -10 -6 0 -11 5 -11 10 0 6 2 10 4 10 3
0 8 -4 11 -10z m-2435 -10 c0 -5 -5 -10 -11 -10 -5 0 -7 5 -4 10 3 6 8 10 11
10 2 0 4 -4 4 -10z m44 -14 c-6 -15 -24 -23 -24 -11 0 8 24 34 28 30 1 -1 0
-10 -4 -19z m402 10 c8 -8 11 -22 8 -30 -3 -9 -1 -16 6 -16 6 0 8 5 5 10 -3 6
-3 10 0 10 8 0 65 -63 65 -71 0 -4 6 -9 13 -12 6 -2 2 -2 -10 0 -28 4 -30 -8
-3 -25 21 -13 27 -32 10 -32 -5 0 -10 6 -10 14 0 8 -9 18 -20 21 -14 5 -19 12
-15 28 6 24 -10 56 -21 44 -4 -3 -2 -12 4 -20 8 -10 6 -16 -9 -25 -10 -7 -19
-8 -19 -3 0 8 -41 23 -47 17 -2 -1 11 -17 28 -34 17 -18 27 -32 22 -32 -13 0
-83 71 -82 84 0 7 2 7 6 -1 8 -21 25 -14 18 7 -5 15 -2 20 11 20 13 0 14 3 4
15 -9 11 -9 17 2 29 16 19 16 19 34 2z m1209 4 c-3 -5 2 -10 11 -10 16 0 16
-1 -2 -15 -10 -8 -23 -14 -29 -15 -5 0 -4 4 4 9 12 8 12 12 2 25 -11 14 -11
16 3 16 10 0 14 -4 11 -10z m575 6 c0 -3 -4 -8 -10 -11 -5 -3 -10 -1 -10 4 0
6 5 11 10 11 6 0 10 -2 10 -4z m-2270 -16 c0 -5 -2 -10 -4 -10 -3 0 -8 5 -11
10 -3 6 -1 10 4 10 6 0 11 -4 11 -10z m1080 0 c0 -5 -2 -10 -4 -10 -3 0 -8 5
-11 10 -3 6 -1 10 4 10 6 0 11 -4 11 -10z m514 -31 l38 -42 -32 -28 c-37 -34
-45 -36 -30 -9 6 11 17 20 25 20 8 0 15 7 15 15 0 17 -16 20 -25 5 -3 -5 -12
-10 -18 -10 -7 0 -3 7 7 15 11 8 17 18 13 21 -4 4 -13 1 -21 -5 -10 -8 -16 -9
-21 -1 -3 5 -1 10 4 10 6 0 11 7 11 15 0 8 -4 15 -10 15 -5 0 -10 5 -10 10 0
19 16 10 54 -31z m347 24 c13 -16 12 -17 -3 -4 -10 7 -18 15 -18 17 0 8 8 3
21 -13z m409 7 c0 -5 -5 -10 -11 -10 -5 0 -7 5 -4 10 3 6 8 10 11 10 2 0 4 -4
4 -10z m95 0 c3 -5 1 -10 -4 -10 -6 0 -11 5 -11 10 0 6 2 10 4 10 3 0 8 -4 11
-10z m-2735 -10 c0 -5 -2 -10 -4 -10 -3 0 -8 5 -11 10 -3 6 -1 10 4 10 6 0 11
-4 11 -10z m157 -5 c8 -9 13 -19 10 -22 -6 -5 -37 21 -37 31 0 10 11 6 27 -9z
m53 -7 c0 -6 -6 -5 -15 2 -8 7 -15 14 -15 16 0 2 7 1 15 -2 8 -4 15 -11 15
-16z m300 1 c0 -14 -17 -10 -23 5 -4 10 -1 13 9 9 7 -3 14 -9 14 -14z m1020
11 c0 -5 -7 -10 -16 -10 -8 0 -12 5 -9 10 3 6 10 10 16 10 5 0 9 -4 9 -10z
m420 0 c0 -5 -4 -10 -10 -10 -5 0 -10 5 -10 10 0 6 5 10 10 10 6 0 10 -4 10
-10z m-2222 -25 c-3 -3 -9 2 -12 12 -6 14 -5 15 5 6 7 -7 10 -15 7 -18z m2052
10 c0 -8 4 -15 9 -15 4 0 20 -12 35 -26 20 -21 24 -30 15 -40 -6 -8 -16 -14
-21 -14 -6 0 -6 6 1 14 10 11 5 21 -24 49 -36 35 -42 47 -25 47 6 0 10 -7 10
-15z m520 11 c0 -11 -19 -15 -25 -6 -3 5 1 10 9 10 9 0 16 -2 16 -4z m87 -21
c-9 -8 -21 -15 -27 -15 -7 0 -2 9 11 19 28 22 39 20 16 -4z m-2557 5 c0 -5 -2
-10 -4 -10 -3 0 -8 5 -11 10 -3 6 -1 10 4 10 6 0 11 -4 11 -10z m815 -22 c19
-17 35 -35 35 -40 0 -11 -61 38 -73 58 -13 23 1 16 38 -18z m45 0 c0 -12 -6
-9 -26 13 -19 22 -19 22 4 8 12 -8 22 -17 22 -21z m1434 16 c9 -24 2 -26 -12
-4 -7 11 -8 20 -3 20 5 0 12 -7 15 -16z m86 6 c0 -5 -2 -10 -4 -10 -3 0 -8 5
-11 10 -3 6 -1 10 4 10 6 0 11 -4 11 -10z m-1600 -42 c0 -5 -8 0 -18 10 -11 9
-17 21 -14 25 4 8 31 -22 32 -35z m815 32 c3 -5 1 -10 -4 -10 -6 0 -11 5 -11
10 0 6 2 10 4 10 3 0 8 -4 11 -10z m1005 0 c0 -5 -4 -10 -10 -10 -5 0 -10 5
-10 10 0 6 5 10 10 10 6 0 10 -4 10 -10z m-2535 -10 c3 -5 1 -10 -4 -10 -6 0
-11 5 -11 10 0 6 2 10 4 10 3 0 8 -4 11 -10z m61 -11 c19 -22 19 -22 -3 -8
-13 8 -23 17 -23 21 0 12 6 9 26 -13z m464 11 c0 -5 -4 -10 -10 -10 -5 0 -10
5 -10 10 0 6 5 10 10 10 6 0 10 -4 10 -10z m747 -26 c3 -8 14 -14 24 -14 18 0
18 -2 -3 -24 -13 -13 -27 -21 -32 -18 -4 2 -3 8 3 12 15 9 4 38 -20 51 -11 5
-19 14 -19 20 0 14 40 -9 47 -27z m783 32 c0 -3 -4 -8 -10 -11 -5 -3 -10 -1
-10 4 0 6 5 11 10 11 6 0 10 -2 10 -4z m50 0 c0 -3 -4 -8 -10 -11 -5 -3 -10
-1 -10 4 0 6 5 11 10 11 6 0 10 -2 10 -4z m45 -6 c-3 -5 -11 -10 -16 -10 -6 0
-7 5 -4 10 3 6 11 10 16 10 6 0 7 -4 4 -10z m45 4 c0 -3 -7 -12 -15 -20 -16
-17 -18 -14 -9 10 6 15 24 23 24 10z m119 -30 c18 -19 30 -38 27 -42 -4 -3
-14 5 -23 18 -9 13 -25 32 -35 42 -10 10 -14 18 -10 18 5 0 23 -16 41 -36z
m26 26 c3 -5 1 -10 -4 -10 -6 0 -11 5 -11 10 0 6 2 10 4 10 3 0 8 -4 11 -10z
m-2475 -10 c0 -5 -2 -10 -4 -10 -3 0 -8 5 -11 10 -3 6 -1 10 4 10 6 0 11 -4
11 -10z m760 0 c0 -5 -2 -10 -4 -10 -3 0 -8 5 -11 10 -3 6 -1 10 4 10 6 0 11
-4 11 -10z m1770 0 c0 -5 -2 -10 -4 -10 -3 0 -8 5 -11 10 -3 6 -1 10 4 10 6 0
11 -4 11 -10z m60 -12 c0 -6 -7 -8 -15 -4 -8 3 -15 0 -15 -6 0 -6 -2 -9 -5 -6
-3 3 -3 12 1 21 6 16 34 12 34 -5z m100 -3 c-7 -8 -16 -15 -21 -15 -5 0 -1 9
8 20 9 11 19 17 21 15 3 -3 -1 -11 -8 -20z m-2050 -7 c0 -6 -6 -5 -15 2 -8 7
-15 14 -15 16 0 2 7 1 15 -2 8 -4 15 -11 15 -16z m50 12 c0 -5 -4 -10 -10 -10
-5 0 -10 5 -10 10 0 6 5 10 10 10 6 0 10 -4 10 -10z m48 -8 c2 -7 -3 -12 -12
-12 -9 0 -16 -5 -16 -11 0 -5 -5 -7 -12 -3 -9 6 -9 9 0 12 7 2 12 10 12 19 0
17 22 13 28 -5z m79 3 c8 -9 13 -18 11 -21 -3 -2 -13 5 -23 16 -21 23 -11 27
12 5z m873 5 c0 -5 -4 -10 -10 -10 -5 0 -10 5 -10 10 0 6 5 10 10 10 6 0 10
-4 10 -10z m520 0 c0 -6 12 -8 28 -5 15 3 20 2 12 -2 -8 -3 -22 -14 -31 -25
-17 -19 -45 -26 -34 -8 3 6 1 10 -4 10 -6 0 -11 5 -11 11 0 8 5 7 15 -1 9 -7
19 -9 23 -5 4 4 1 10 -5 12 -15 6 -17 23 -3 23 6 0 10 -5 10 -10z m420 -5 c-7
-8 -17 -15 -22 -15 -11 0 14 29 26 30 5 0 3 -7 -4 -15z m-2750 -5 c0 -5 -5
-10 -11 -10 -5 0 -7 5 -4 10 3 6 8 10 11 10 2 0 4 -4 4 -10z m150 0 c0 -5 -4
-10 -10 -10 -5 0 -10 5 -10 10 0 6 5 10 10 10 6 0 10 -4 10 -10z m1330 0 c0
-5 -4 -10 -10 -10 -5 0 -10 5 -10 10 0 6 5 10 10 10 6 0 10 -4 10 -10z m1556
-17 c-6 -6 -36 9 -36 18 0 5 9 4 20 -3 10 -7 18 -14 16 -15z m-3186 7 c0 -5
-4 -10 -10 -10 -5 0 -10 5 -10 10 0 6 5 10 10 10 6 0 10 -4 10 -10z m1145 0
c3 -5 1 -10 -4 -10 -6 0 -11 5 -11 10 0 6 2 10 4 10 3 0 8 -4 11 -10z m1548
-4 c8 -21 -3 -27 -19 -11 -18 17 -18 25 0 25 8 0 16 -6 19 -14z m-2078 -6 c3
-5 1 -10 -4 -10 -6 0 -11 5 -11 10 0 6 2 10 4 10 3 0 8 -4 11 -10z m325 2 c0
-13 -12 -22 -22 -16 -10 6 -1 24 13 24 5 0 9 -4 9 -8z m-605 -20 c-3 -3 -11 0
-18 7 -9 10 -8 11 6 5 10 -3 15 -9 12 -12z m745 12 c0 -10 -28 -34 -41 -34 -8
0 -5 8 7 19 19 20 34 26 34 15z m155 -32 c-6 -7 -35 18 -35 31 0 5 9 2 20 -8
11 -10 18 -20 15 -23z m580 28 c3 -5 1 -10 -4 -10 -6 0 -11 5 -11 10 0 6 2 10
4 10 3 0 8 -4 11 -10z m775 0 c0 -5 -2 -10 -4 -10 -3 0 -8 5 -11 10 -3 6 -1
10 4 10 6 0 11 -4 11 -10z m310 0 c0 -5 -5 -10 -11 -10 -5 0 -7 5 -4 10 3 6 8
10 11 10 2 0 4 -4 4 -10z m130 6 c0 -3 -4 -8 -10 -11 -5 -3 -10 -1 -10 4 0 6
5 11 10 11 6 0 10 -2 10 -4z m-1836 -32 c22 -23 33 -44 23 -44 -1 0 -17 16
-36 35 -38 40 -27 48 13 9z m1240 11 c-4 -8 -10 -15 -15 -15 -5 0 -9 7 -9 15
0 8 7 15 15 15 9 0 12 -6 9 -15z m213 9 c-3 -3 -12 -4 -19 -1 -8 3 -5 6 6 6
11 1 17 -2 13 -5z m-2317 -30 c0 -2 -9 0 -20 6 -11 6 -20 13 -20 16 0 2 9 0
20 -6 11 -6 20 -13 20 -16z m550 -10 c0 -3 -7 -1 -15 6 -8 7 -15 17 -15 22 0
5 7 3 15 -6 8 -8 15 -18 15 -22z m80 26 c0 -5 -4 -10 -10 -10 -5 0 -10 5 -10
10 0 6 5 10 10 10 6 0 10 -4 10 -10z m50 0 c0 -5 -4 -10 -10 -10 -5 0 -10 5
-10 10 0 6 5 10 10 10 6 0 10 -4 10 -10z m510 0 c0 -5 -7 -10 -15 -10 -24 0
-17 -13 25 -45 39 -30 49 -45 30 -45 -5 0 -10 5 -10 10 0 6 -7 10 -15 10 -8 0
-15 8 -15 17 0 13 -3 14 -12 5 -8 -8 -8 -15 2 -27 8 -10 9 -15 1 -15 -6 0 -11
5 -11 10 0 14 -28 12 -32 -2 -3 -8 -17 0 -36 20 -34 35 -44 56 -14 29 14 -13
21 -14 30 -5 8 8 9 5 5 -11 -3 -12 -1 -21 6 -21 6 0 11 7 11 16 0 10 6 14 15
10 18 -7 19 -2 3 24 -11 17 -10 22 2 30 19 13 30 12 30 0z m110 6 c0 -3 -4 -8
-10 -11 -5 -3 -10 -1 -10 4 0 6 5 11 10 11 6 0 10 -2 10 -4z m858 -39 c-25
-23 -27 -23 -48 -7 -23 18 -23 18 -3 29 18 9 20 8 16 -9 -3 -11 -2 -20 2 -20
11 0 35 28 35 41 0 10 3 10 12 1 9 -9 5 -17 -14 -35z m233 30 c-1 -12 -15 -9
-19 4 -3 6 1 10 8 8 6 -3 11 -8 11 -12z m104 3 c3 -5 1 -10 -4 -10 -6 0 -11 5
-11 10 0 6 2 10 4 10 3 0 8 -4 11 -10z m175 0 c0 -5 -2 -10 -4 -10 -3 0 -8 5
-11 10 -3 6 -1 10 4 10 6 0 11 -4 11 -10z m-673 -6 c-3 -3 -12 -4 -19 -1 -8 3
-5 6 6 6 11 1 17 -2 13 -5z m290 0 c-3 -3 -12 -4 -19 -1 -8 3 -5 6 6 6 11 1
17 -2 13 -5z m-1777 -14 c0 -5 -4 -10 -10 -10 -5 0 -10 5 -10 10 0 6 5 10 10
10 6 0 10 -4 10 -10z m95 0 c3 -5 1 -10 -4 -10 -6 0 -11 5 -11 10 0 6 2 10 4
10 3 0 8 -4 11 -10z m925 0 c0 -5 -4 -10 -10 -10 -5 0 -10 5 -10 10 0 6 5 10
10 10 6 0 10 -4 10 -10z m138 -2 c7 -7 12 -16 12 -20 0 -15 -15 -8 -28 12 -13
22 -3 27 16 8z m129 6 c-3 -3 -12 -4 -19 -1 -8 3 -5 6 6 6 11 1 17 -2 13 -5z
m273 -4 c0 -5 -4 -10 -10 -10 -5 0 -10 5 -10 10 0 6 5 10 10 10 6 0 10 -4 10
-10z m-1682 -25 c-3 -3 -9 2 -12 12 -6 14 -5 15 5 6 7 -7 10 -15 7 -18z m882
21 c0 -3 -4 -8 -10 -11 -5 -3 -10 -1 -10 4 0 6 5 11 10 11 6 0 10 -2 10 -4z
m68 -21 c15 -14 22 -25 17 -25 -12 1 -55 35 -55 44 0 11 11 6 38 -19z m186
-37 c-3 -4 -10 -6 -15 -3 -5 4 -9 0 -9 -9 0 -8 6 -16 13 -19 6 -2 9 -8 5 -12
-4 -4 -14 0 -24 9 -13 14 -14 19 -3 32 8 10 9 18 3 22 -6 4 -14 16 -18 27 -6
16 -1 14 23 -9 17 -16 28 -33 25 -38z m346 52 c0 -5 -5 -10 -11 -10 -5 0 -7 5
-4 10 3 6 8 10 11 10 2 0 4 -4 4 -10z m113 -4 c12 -9 14 -16 8 -21 -6 -3 -11
-1 -11 4 0 6 -7 11 -15 11 -8 0 -15 5 -15 10 0 14 11 12 33 -4z m227 4 c0 -5
-2 -10 -4 -10 -3 0 -8 5 -11 10 -3 6 -1 10 4 10 6 0 11 -4 11 -10z m40 0 c0
-5 -2 -10 -4 -10 -3 0 -8 5 -11 10 -3 6 -1 10 4 10 6 0 11 -4 11 -10z m60 0
c0 -5 -2 -10 -4 -10 -3 0 -8 5 -11 10 -3 6 -1 10 4 10 6 0 11 -4 11 -10z m50
0 c0 -5 -2 -10 -4 -10 -3 0 -8 5 -11 10 -3 6 -1 10 4 10 6 0 11 -4 11 -10z
m60 0 c0 -5 -2 -10 -4 -10 -3 0 -8 5 -11 10 -3 6 -1 10 4 10 6 0 11 -4 11 -10z
m110 0 c0 -5 -4 -10 -10 -10 -5 0 -10 5 -10 10 0 6 5 10 10 10 6 0 10 -4 10
-10z m-2639 -17 c13 -16 12 -17 -3 -4 -10 7 -18 15 -18 17 0 8 8 3 21 -13z
m549 11 c0 -3 -7 -12 -15 -21 -20 -19 -32 -10 -14 11 14 15 29 21 29 10z m366
-5 c4 -8 9 -7 15 2 4 7 11 10 15 7 3 -4 0 -14 -8 -22 -13 -13 -17 -12 -31 5
-9 10 -13 19 -7 19 5 0 12 -5 16 -11z m124 1 c0 -5 -2 -10 -4 -10 -3 0 -8 5
-11 10 -3 6 -1 10 4 10 6 0 11 -4 11 -10z m60 0 c0 -5 -4 -10 -10 -10 -5 0
-10 5 -10 10 0 6 5 10 10 10 6 0 10 -4 10 -10z m1055 0 c3 -5 1 -10 -4 -10 -6
0 -11 5 -11 10 0 6 2 10 4 10 3 0 8 -4 11 -10z m-1249 -47 c-3 -4 -13 2 -21
13 -22 29 -18 41 6 15 12 -12 18 -25 15 -28z m769 21 c36 -38 31 -51 -5 -16
-29 29 -36 42 -25 42 3 0 17 -12 30 -26z m40 16 c3 -5 2 -10 -4 -10 -5 0 -13
5 -16 10 -3 6 -2 10 4 10 5 0 13 -4 16 -10z m480 -9 c-3 -6 -11 -11 -17 -11
-6 0 -6 6 2 15 14 17 26 13 15 -4z m250 9 c3 -5 -1 -10 -10 -10 -9 0 -13 5
-10 10 3 6 8 10 10 10 2 0 7 -4 10 -10z m50 0 c3 -5 1 -10 -4 -10 -6 0 -11 5
-11 10 0 6 2 10 4 10 3 0 8 -4 11 -10z m-1437 -40 c6 0 12 6 15 13 4 10 7 10
18 0 11 -11 10 -13 -4 -13 -9 0 -17 -4 -17 -10 0 -5 -5 -10 -10 -10 -15 0 -60
46 -53 54 3 3 14 -3 23 -14 10 -11 22 -20 28 -20z m12 36 c0 -3 -4 -8 -10 -11
-5 -3 -10 -1 -10 4 0 6 5 11 10 11 6 0 10 -2 10 -4z m340 -6 c8 -5 12 -11 10
-14 -3 -2 -14 2 -24 10 -22 15 -10 19 14 4z m466 -28 c-6 -5 -36 23 -36 34 0
4 9 -1 20 -11 11 -10 18 -20 16 -23z m41 23 c8 -9 13 -18 11 -21 -3 -2 -13 5
-23 16 -21 23 -11 27 12 5z m45 8 c2 -5 15 -19 30 -32 27 -24 28 -24 48 -6 12
11 20 13 20 6 0 -7 11 -23 25 -37 31 -30 33 -44 4 -18 -16 14 -23 15 -26 7 -3
-7 -10 -13 -16 -13 -8 0 -7 4 1 12 19 19 14 29 -12 22 -14 -3 -29 0 -39 10 -8
9 -18 16 -21 16 -3 0 -15 9 -26 20 -15 15 -16 20 -6 20 8 0 16 -3 18 -7z m364
-8 c-8 -8 -18 -15 -22 -15 -3 0 -1 7 6 15 7 8 17 15 22 15 5 0 3 -7 -6 -15z
m71 9 c-3 -3 -12 -4 -19 -1 -8 3 -5 6 6 6 11 1 17 -2 13 -5z m-1227 -14 c0 -5
-2 -10 -4 -10 -3 0 -8 5 -11 10 -3 6 -1 10 4 10 6 0 11 -4 11 -10z m205 0 c3
-5 1 -10 -4 -10 -6 0 -11 5 -11 10 0 6 2 10 4 10 3 0 8 -4 11 -10z m163 -10
c7 -11 10 -20 7 -20 -3 0 -15 9 -27 20 -16 14 -18 20 -7 20 8 0 20 -9 27 -20z
m218 5 c-11 -8 -17 -18 -13 -21 4 -4 13 -1 22 6 20 17 21 -6 1 -26 -13 -12
-17 -11 -30 8 -18 25 -21 42 -6 33 6 -3 10 -1 10 4 0 6 8 11 18 11 15 -1 15
-2 -2 -15z m374 5 c0 -5 -2 -10 -4 -10 -3 0 -8 5 -11 10 -3 6 -1 10 4 10 6 0
11 -4 11 -10z m100 1 c0 -5 -6 -11 -12 -14 -7 -2 -10 -8 -6 -12 4 -4 15 -2 24
6 15 12 17 12 12 -1 -6 -18 -28 -23 -47 -11 -12 8 -12 11 0 25 16 17 29 21 29
7z m277 -16 c-23 -22 -33 -18 -12 5 10 11 20 18 23 16 2 -3 -3 -12 -11 -21z
m313 15 c0 -5 -4 -10 -10 -10 -5 0 -10 5 -10 10 0 6 5 10 10 10 6 0 10 -4 10
-10z m-2420 -10 c8 -5 11 -10 5 -10 -5 0 -17 5 -25 10 -8 5 -10 10 -5 10 6 0
17 -5 25 -10z m433 -23 c-3 -4 -6 -7 -7 -5 -1 2 -8 12 -16 22 -14 18 -14 18 7
6 12 -8 19 -18 16 -23z m1527 23 c0 -5 -2 -10 -4 -10 -3 0 -8 5 -11 10 -3 6
-1 10 4 10 6 0 11 -4 11 -10z m55 0 c-3 -5 -10 -10 -16 -10 -5 0 -9 5 -9 10 0
6 7 10 16 10 8 0 12 -4 9 -10z m275 6 c0 -3 -4 -8 -10 -11 -5 -3 -10 -1 -10 4
0 6 5 11 10 11 6 0 10 -2 10 -4z m-1955 -16 c3 -5 1 -10 -4 -10 -6 0 -11 5
-11 10 0 6 2 10 4 10 3 0 8 -4 11 -10z m209 -14 c-6 -16 -24 -13 -24 5 0 6 5
7 10 4 6 -3 10 -1 10 6 0 7 2 10 5 7 3 -3 3 -13 -1 -22z m206 14 c0 -5 -2 -10
-4 -10 -3 0 -8 5 -11 10 -3 6 -1 10 4 10 6 0 11 -4 11 -10z m300 0 c0 -5 -4
-10 -10 -10 -5 0 -10 5 -10 10 0 6 5 10 10 10 6 0 10 -4 10 -10z m50 0 c0 -5
-7 -10 -15 -10 -8 0 -15 -5 -15 -12 0 -6 -3 -8 -6 -5 -8 8 14 37 27 37 5 0 9
-4 9 -10z m340 0 c0 -5 -4 -10 -9 -10 -6 0 -13 5 -16 10 -3 6 1 10 9 10 9 0
16 -4 16 -10z m274 -9 c17 -19 17 -19 -3 -14 -12 3 -21 12 -21 19 0 18 4 18
24 -5z m-1324 -1 c0 -5 -4 -10 -10 -10 -5 0 -10 5 -10 10 0 6 5 10 10 10 6 0
10 -4 10 -10z m244 -29 c-6 -6 -34 20 -34 32 0 6 8 2 19 -9 10 -10 17 -21 15
-23z m376 29 c8 -5 12 -12 9 -15 -8 -8 -39 5 -39 16 0 11 11 11 30 -1z m258
-7 c12 -12 13 -18 4 -21 -14 -4 -16 -32 -2 -32 6 0 10 -5 10 -12 0 -7 -10 -2
-22 10 -20 20 -21 24 -8 33 11 8 12 12 3 16 -13 5 -18 23 -7 23 3 0 13 -8 22
-17z m617 7 c3 -5 1 -10 -4 -10 -6 0 -11 5 -11 10 0 6 2 10 4 10 3 0 8 -4 11
-10z m55 6 c0 -11 -19 -15 -25 -6 -3 5 1 10 9 10 9 0 16 -2 16 -4z m-1680 -16
c0 -5 -4 -10 -10 -10 -5 0 -10 5 -10 10 0 6 5 10 10 10 6 0 10 -4 10 -10z
m314 -20 c-6 -6 -10 -3 -10 10 0 13 4 16 10 10 7 -7 7 -13 0 -20z m154 10 c12
-20 12 -21 -13 -4 -28 18 -31 24 -12 24 7 0 18 -9 25 -20z m772 5 c0 -8 -2
-15 -4 -15 -2 0 -6 7 -10 15 -3 8 -1 15 4 15 6 0 10 -7 10 -15z m530 5 c0 -5
7 -10 16 -10 8 0 12 5 9 10 -11 18 11 10 30 -10 10 -11 13 -20 7 -20 -6 0 -12
6 -15 13 -3 9 -7 9 -18 0 -11 -9 -18 -8 -32 1 -19 15 -22 26 -7 26 6 0 10 -4
10 -10z m-1846 -16 c5 -14 4 -15 -9 -4 -17 14 -19 20 -6 20 5 0 12 -7 15 -16z
m136 12 c0 -3 -4 -8 -10 -11 -5 -3 -10 -1 -10 4 0 6 5 11 10 11 6 0 10 -2 10
-4z m40 -6 c0 -5 -2 -10 -4 -10 -3 0 -8 5 -11 10 -3 6 -1 10 4 10 6 0 11 -4
11 -10z m417 4 c-3 -3 -12 -4 -19 -1 -8 3 -5 6 6 6 11 1 17 -2 13 -5z m53 -4
c0 -5 -4 -10 -10 -10 -5 0 -10 5 -10 10 0 6 5 10 10 10 6 0 10 -4 10 -10z
m114 -19 c-2 -3 -12 3 -22 13 -16 17 -16 18 5 5 12 -7 20 -15 17 -18z m45 15
c10 -12 8 -13 -8 -9 -12 3 -21 9 -21 14 0 14 16 11 29 -5z m191 4 c0 -5 -4
-10 -10 -10 -5 0 -10 5 -10 10 0 6 5 10 10 10 6 0 10 -4 10 -10z m168 -22 c14
-19 38 -26 27 -8 -10 17 24 45 38 31 8 -8 8 -11 -2 -11 -9 0 -11 -8 -7 -27 5
-20 4 -24 -3 -13 -8 12 -13 11 -32 -5 -12 -11 -20 -15 -17 -10 11 19 -19 47
-44 41 -13 -3 -17 -3 -10 0 6 3 12 12 12 20 0 18 19 9 38 -18z m132 7 c13 -14
18 -25 12 -25 -7 0 -12 5 -12 10 0 6 -5 10 -11 10 -6 0 -17 7 -25 15 -13 12
-13 15 -1 15 7 0 24 -11 37 -25z m647 19 c-3 -3 -12 -4 -19 -1 -8 3 -5 6 6 6
11 1 17 -2 13 -5z m53 -4 c0 -5 -4 -10 -10 -10 -5 0 -10 5 -10 10 0 6 5 10 10
10 6 0 10 -4 10 -10z m55 0 c3 -5 1 -10 -4 -10 -6 0 -11 5 -11 10 0 6 2 10 4
10 3 0 8 -4 11 -10z m-1705 -20 c14 -11 19 -20 12 -20 -7 0 -22 9 -34 20 -28
26 -11 26 22 0z m160 10 c0 -5 -2 -10 -4 -10 -3 0 -8 5 -11 10 -3 6 -1 10 4
10 6 0 11 -4 11 -10z m834 -5 c-4 -8 -8 -15 -10 -15 -2 0 -4 7 -4 15 0 8 4 15
10 15 5 0 7 -7 4 -15z m286 5 c0 -5 -2 -10 -4 -10 -3 0 -8 5 -11 10 -3 6 -1
10 4 10 6 0 11 -4 11 -10z m56 -4 c20 -21 17 -28 -6 -14 -11 7 -20 16 -20 20
0 12 10 9 26 -6z m159 -16 c16 -16 25 -30 22 -30 -4 0 -21 14 -37 30 -16 17
-26 30 -22 30 5 0 21 -13 37 -30z m-1735 16 c0 -3 -4 -8 -10 -11 -5 -3 -10 -1
-10 4 0 6 5 11 10 11 6 0 10 -2 10 -4z m745 -16 c-10 -11 -20 -18 -23 -16 -5
6 21 35 32 36 5 0 1 -9 -9 -20z m65 10 c0 -5 -4 -10 -10 -10 -5 0 -10 5 -10
10 0 6 5 10 10 10 6 0 10 -4 10 -10z m50 0 c0 -5 -2 -10 -4 -10 -3 0 -8 5 -11
10 -3 6 -1 10 4 10 6 0 11 -4 11 -10z m1000 2 c0 -4 -9 -13 -20 -20 -23 -14
-26 -8 -7 13 13 16 27 19 27 7z m-1715 -12 c3 -5 1 -10 -4 -10 -6 0 -11 5 -11
10 0 6 2 10 4 10 3 0 8 -4 11 -10z m225 0 c0 -5 -2 -10 -4 -10 -3 0 -8 5 -11
10 -3 6 -1 10 4 10 6 0 11 -4 11 -10z m525 -6 c-9 -9 -19 -13 -23 -10 -3 4 0
11 8 16 24 15 33 11 15 -6z m279 -23 c-3 -3 -15 6 -27 18 l-22 24 27 -19 c14
-10 24 -21 22 -23z m-1149 19 c3 -5 1 -10 -4 -10 -6 0 -11 5 -11 10 0 6 2 10
4 10 3 0 8 -4 11 -10z m460 0 c3 -5 1 -10 -4 -10 -6 0 -11 5 -11 10 0 6 2 10
4 10 3 0 8 -4 11 -10z m155 -5 c7 -8 8 -15 2 -15 -5 0 -15 7 -22 15 -7 8 -8
15 -2 15 5 0 15 -7 22 -15z m56 1 c20 -21 17 -28 -6 -14 -11 7 -20 16 -20 20
0 12 10 9 26 -6z m753 -9 c-9 -7 -18 -19 -22 -27 -4 -12 -6 -12 -6 2 -1 19 28
52 38 43 3 -4 -1 -12 -10 -18z m72 1 c11 -21 11 -22 -4 -9 -10 7 -17 17 -17
22 0 15 9 10 21 -13z m-1521 -9 c0 -14 -17 -10 -23 5 -4 10 -1 13 9 9 7 -3 14
-9 14 -14z m80 17 c0 -3 -4 -8 -10 -11 -5 -3 -10 -1 -10 4 0 6 5 11 10 11 6 0
10 -2 10 -4z m715 -7 c11 -16 1 -19 -13 -3 -7 8 -8 14 -3 14 5 0 13 -5 16 -11z
m145 1 c0 -5 -4 -10 -10 -10 -5 0 -10 5 -10 10 0 6 5 10 10 10 6 0 10 -4 10
-10z m105 0 c3 -5 2 -10 -4 -10 -5 0 -13 5 -16 10 -3 6 -2 10 4 10 5 0 13 -4
16 -10z m229 -49 c-4 -3 -9 0 -11 7 -3 6 -9 10 -14 6 -5 -3 -9 2 -9 10 0 9 -7
16 -16 16 -8 0 -12 5 -8 11 4 7 17 0 35 -17 16 -15 26 -30 23 -33z m16 49 c0
-5 -7 -10 -16 -10 -8 0 -12 5 -9 10 3 6 10 10 16 10 5 0 9 -4 9 -10z m50 0 c0
-5 -4 -10 -10 -10 -5 0 -10 5 -10 10 0 6 5 10 10 10 6 0 10 -4 10 -10z m230 6
c0 -3 -4 -8 -10 -11 -5 -3 -10 -1 -10 4 0 6 5 11 10 11 6 0 10 -2 10 -4z m440
0 c0 -3 -4 -8 -10 -11 -5 -3 -10 -1 -10 4 0 6 5 11 10 11 6 0 10 -2 10 -4z
m-1773 -21 c8 -9 13 -18 11 -21 -3 -2 -13 5 -23 16 -21 23 -11 27 12 5z m56 3
c3 -10 8 -9 22 2 17 14 17 14 5 -7 -13 -20 -15 -20 -37 -6 -27 18 -29 23 -9
23 8 0 16 -6 19 -12z m127 -13 c0 -8 -2 -15 -4 -15 -2 0 -6 7 -10 15 -3 8 -1
15 4 15 6 0 10 -7 10 -15z m120 -17 c0 -5 -9 -3 -20 4 -11 7 -20 16 -20 20 0
5 9 3 20 -4 11 -7 20 -16 20 -20z m330 28 c0 -3 -4 -8 -10 -11 -5 -3 -10 -1
-10 4 0 6 5 11 10 11 6 0 10 -2 10 -4z m40 -6 c0 -5 -2 -10 -4 -10 -3 0 -8 5
-11 10 -3 6 -1 10 4 10 6 0 11 -4 11 -10z m105 0 c3 -5 1 -10 -4 -10 -6 0 -11
5 -11 10 0 6 2 10 4 10 3 0 8 -4 11 -10z m355 0 c0 -5 -2 -10 -4 -10 -3 0 -8
5 -11 10 -3 6 -1 10 4 10 6 0 11 -4 11 -10z m104 -4 c-10 -8 -21 -12 -24 -10
-5 6 21 24 34 24 6 0 1 -6 -10 -14z m116 4 c0 -5 -2 -10 -4 -10 -3 0 -8 5 -11
10 -3 6 -1 10 4 10 6 0 11 -4 11 -10z m98 -8 c6 -18 -15 -14 -22 4 -4 10 -1
14 6 12 6 -2 14 -10 16 -16z m-1538 -2 c0 -5 -2 -10 -4 -10 -3 0 -8 5 -11 10
-3 6 -1 10 4 10 6 0 11 -4 11 -10z m50 0 c0 -5 -2 -10 -4 -10 -3 0 -8 5 -11
10 -3 6 -1 10 4 10 6 0 11 -4 11 -10z m402 -20 c17 -16 26 -30 20 -30 -6 0
-15 6 -19 13 -4 7 -19 21 -33 30 -13 9 -19 17 -12 17 7 0 26 -13 44 -30z m28
20 c0 -5 -2 -10 -4 -10 -3 0 -8 5 -11 10 -3 6 -1 10 4 10 6 0 11 -4 11 -10z
m60 0 c0 -5 -4 -10 -10 -10 -5 0 -10 5 -10 10 0 6 5 10 10 10 6 0 10 -4 10
-10z m460 2 c0 -13 -12 -22 -22 -16 -10 6 -1 24 13 24 5 0 9 -4 9 -8z m55 -2
c3 -5 -1 -10 -10 -10 -9 0 -13 5 -10 10 3 6 8 10 10 10 2 0 7 -4 10 -10z m642
-5 c8 -9 13 -18 11 -21 -3 -2 -13 5 -23 16 -21 23 -11 27 12 5z m-1344 -16
c10 -11 15 -24 11 -27 -4 -4 -9 -1 -11 6 -3 7 -11 19 -20 27 -8 8 -11 15 -6
15 5 0 17 -9 26 -21z m332 11 c3 -5 1 -10 -4 -10 -6 0 -11 5 -11 10 0 6 2 10
4 10 3 0 8 -4 11 -10z m55 0 c0 -5 -4 -10 -10 -10 -5 0 -10 5 -10 10 0 6 5 10
10 10 6 0 10 -4 10 -10z m505 0 c3 -5 1 -10 -4 -10 -6 0 -11 5 -11 10 0 6 2
10 4 10 3 0 8 -4 11 -10z m165 0 c0 -5 -5 -10 -11 -10 -5 0 -7 5 -4 10 3 6 8
10 11 10 2 0 4 -4 4 -10z m-1335 -10 c3 -5 1 -10 -4 -10 -6 0 -11 5 -11 10 0
6 2 10 4 10 3 0 8 -4 11 -10z m1303 -15 c-3 -3 -9 2 -12 12 -6 14 -5 15 5 6 7
-7 10 -15 7 -18z m92 15 c0 -5 -7 -7 -15 -4 -8 4 -15 8 -15 10 0 2 7 4 15 4 8
0 15 -4 15 -10z m-1430 -15 c7 -8 9 -15 6 -15 -4 0 -14 7 -22 15 -9 8 -11 15
-6 15 5 0 15 -7 22 -15z m880 5 c0 -5 -4 -10 -10 -10 -5 0 -10 5 -10 10 0 6 5
10 10 10 6 0 10 -4 10 -10z m850 0 c0 -5 -2 -10 -4 -10 -3 0 -8 5 -11 10 -3 6
-1 10 4 10 6 0 11 -4 11 -10z m-2170 -10 c0 -5 -2 -10 -4 -10 -3 0 -8 5 -11
10 -3 6 -1 10 4 10 6 0 11 -4 11 -10z m497 -12 c-3 -8 -6 -5 -6 6 -1 11 2 17
5 13 3 -3 4 -12 1 -19z m40 -3 c-23 -22 -33 -18 -12 5 10 11 20 18 23 16 2 -3
-3 -12 -11 -21z m448 15 c3 -5 1 -10 -4 -10 -6 0 -11 5 -11 10 0 6 2 10 4 10
3 0 8 -4 11 -10z m225 0 c0 -5 -2 -10 -4 -10 -3 0 -8 5 -11 10 -3 6 -1 10 4
10 6 0 11 -4 11 -10z m-270 -10 c0 -5 -2 -10 -4 -10 -3 0 -8 5 -11 10 -3 6 -1
10 4 10 6 0 11 -4 11 -10z m338 -26 c-4 -3 -12 5 -18 18 -12 22 -12 22 6 6 10
-10 15 -20 12 -24z m-588 11 c-7 -8 -17 -15 -22 -15 -11 0 14 29 26 30 5 0 3
-7 -4 -15z m834 1 c-10 -8 -21 -12 -24 -10 -5 6 21 24 34 24 6 0 1 -6 -10 -14z
m336 4 c0 -5 -2 -10 -4 -10 -3 0 -8 5 -11 10 -3 6 -1 10 4 10 6 0 11 -4 11
-10z m-1005 -18 c-3 -3 -11 0 -18 7 -9 10 -8 11 6 5 10 -3 15 -9 12 -12z m55
8 c0 -5 -2 -10 -4 -10 -3 0 -8 5 -11 10 -3 6 -1 10 4 10 6 0 11 -4 11 -10z
m520 0 c0 -5 -2 -10 -4 -10 -3 0 -8 5 -11 10 -3 6 -1 10 4 10 6 0 11 -4 11
-10z m537 4 c-3 -3 -12 -4 -19 -1 -8 3 -5 6 6 6 11 1 17 -2 13 -5z m-1192 -14
c3 -5 1 -10 -4 -10 -6 0 -11 5 -11 10 0 6 2 10 4 10 3 0 8 -4 11 -10z m842 4
c-3 -3 -12 -4 -19 -1 -8 3 -5 6 6 6 11 1 17 -2 13 -5z m268 -4 c3 -5 1 -10 -4
-10 -6 0 -11 5 -11 10 0 6 2 10 4 10 3 0 8 -4 11 -10z m-1398 -18 c-15 -10
-24 -22 -20 -25 3 -4 1 -7 -5 -7 -7 0 -12 4 -12 9 0 12 40 41 55 41 5 0 -2 -8
-18 -18z m453 8 c0 -5 -5 -10 -11 -10 -5 0 -7 5 -4 10 3 6 8 10 11 10 2 0 4
-4 4 -10z m600 0 c0 -5 -2 -10 -4 -10 -3 0 -8 5 -11 10 -3 6 -1 10 4 10 6 0
11 -4 11 -10z m-840 -4 c0 -3 -4 -8 -10 -11 -5 -3 -10 -1 -10 4 0 6 5 11 10
11 6 0 10 -2 10 -4z m1166 -11 c9 -8 12 -15 7 -15 -4 0 -1 -5 7 -11 13 -9 12
-10 -3 -5 -11 3 -20 0 -23 -9 -4 -8 -13 -15 -22 -15 -11 0 -9 6 9 21 16 15 20
23 12 26 -7 3 -13 9 -13 14 0 13 9 11 26 -6z m474 5 c0 -5 -4 -10 -10 -10 -5
0 -10 5 -10 10 0 6 5 10 10 10 6 0 10 -4 10 -10z m-2000 -10 c0 -5 -2 -10 -4
-10 -3 0 -8 5 -11 10 -3 6 -1 10 4 10 6 0 11 -4 11 -10z m1665 0 c3 -5 1 -10
-4 -10 -6 0 -11 5 -11 10 0 6 2 10 4 10 3 0 8 -4 11 -10z m-715 -15 c7 -8 8
-15 2 -15 -5 0 -15 7 -22 15 -7 8 -8 15 -2 15 5 0 15 -7 22 -15z m-510 1 c0
-3 -4 -8 -10 -11 -5 -3 -10 -1 -10 4 0 6 5 11 10 11 6 0 10 -2 10 -4z m800 -6
c0 -5 -2 -10 -4 -10 -3 0 -8 5 -11 10 -3 6 -1 10 4 10 6 0 11 -4 11 -10z m30
-20 c0 -5 -4 -10 -10 -10 -5 0 -10 5 -10 10 0 6 5 10 10 10 6 0 10 -4 10 -10z
m-1030 -10 c0 -5 -2 -10 -4 -10 -3 0 -8 5 -11 10 -3 6 -1 10 4 10 6 0 11 -4
11 -10z m45 0 c3 -5 1 -10 -4 -10 -6 0 -11 5 -11 10 0 6 2 10 4 10 3 0 8 -4
11 -10z m665 0 c0 -5 -4 -10 -10 -10 -5 0 -10 5 -10 10 0 6 5 10 10 10 6 0 10
-4 10 -10z m350 -4 c0 -3 -4 -8 -10 -11 -5 -3 -10 -1 -10 4 0 6 5 11 10 11 6
0 10 -2 10 -4z m-1095 -25 c-3 -6 -11 -11 -16 -11 -5 0 -4 6 3 14 14 16 24 13
13 -3z m121 -19 c-4 -3 -11 0 -16 8 -15 24 -11 33 6 15 9 -9 13 -19 10 -23z
m164 28 c0 -5 -4 -10 -10 -10 -5 0 -10 5 -10 10 0 6 5 10 10 10 6 0 10 -4 10
-10z m480 -10 c0 -5 -4 -10 -10 -10 -5 0 -10 5 -10 10 0 6 5 10 10 10 6 0 10
-4 10 -10z m835 0 c3 -5 1 -10 -4 -10 -6 0 -11 5 -11 10 0 6 2 10 4 10 3 0 8
-4 11 -10z m-862 -14 c3 -8 0 -17 -7 -19 -10 -4 -12 1 -9 14 6 23 9 24 16 5z
m497 -1 c7 -9 8 -15 2 -15 -5 0 -12 7 -16 15 -3 8 -4 15 -2 15 2 0 9 -7 16
-15z m70 5 c0 -5 -2 -10 -4 -10 -3 0 -8 5 -11 10 -3 6 -1 10 4 10 6 0 11 -4
11 -10z m-1050 -10 c0 -5 -5 -10 -11 -10 -5 0 -7 5 -4 10 3 6 8 10 11 10 2 0
4 -4 4 -10z m690 0 c0 -5 -2 -10 -4 -10 -3 0 -8 5 -11 10 -3 6 -1 10 4 10 6 0
11 -4 11 -10z m430 -5 c7 -9 8 -15 2 -15 -5 0 -12 7 -16 15 -3 8 -4 15 -2 15
2 0 9 -7 16 -15z m-1505 -5 c3 -5 1 -10 -4 -10 -6 0 -11 5 -11 10 0 6 2 10 4
10 3 0 8 -4 11 -10z m915 6 c0 -3 -4 -8 -10 -11 -5 -3 -10 -1 -10 4 0 6 5 11
10 11 6 0 10 -2 10 -4z m370 -11 c7 -9 8 -15 2 -15 -5 0 -12 7 -16 15 -3 8 -4
15 -2 15 2 0 9 -7 16 -15z m54 0 c11 -8 17 -18 13 -21 -3 -3 -16 3 -28 15 -26
24 -14 28 15 6z m-89 -5 c3 -5 1 -10 -4 -10 -6 0 -11 5 -11 10 0 6 2 10 4 10
3 0 8 -4 11 -10z m-885 -22 c0 -6 -6 -5 -15 2 -8 7 -15 14 -15 16 0 2 7 1 15
-2 8 -4 15 -11 15 -16z m1067 0 c-3 -8 -6 -5 -6 6 -1 11 2 17 5 13 3 -3 4 -12
1 -19z m-682 -8 c3 -5 1 -10 -4 -10 -6 0 -11 5 -11 10 0 6 2 10 4 10 3 0 8 -4
11 -10z m165 1 c0 -5 -7 -11 -14 -14 -10 -4 -13 -1 -9 9 6 15 23 19 23 5z m48
-8 c-2 -9 -9 -18 -16 -19 -7 -1 -8 0 -3 2 6 3 7 12 4 20 -3 8 0 14 7 14 6 0
10 -8 8 -17z m362 7 c0 -5 -4 -10 -10 -10 -5 0 -10 5 -10 10 0 6 5 10 10 10 6
0 10 -4 10 -10z m-1040 -10 c0 -5 -5 -10 -11 -10 -5 0 -7 5 -4 10 3 6 8 10 11
10 2 0 4 -4 4 -10z m1180 0 c0 -5 -2 -10 -4 -10 -3 0 -8 5 -11 10 -3 6 -1 10
4 10 6 0 11 -4 11 -10z m-1240 -20 c0 -5 -5 -10 -11 -10 -5 0 -7 5 -4 10 3 6
8 10 11 10 2 0 4 -4 4 -10z m956 -12 l19 -23 -25 20 c-14 11 -27 21 -29 22 -2
2 0 3 6 3 5 0 18 -10 29 -22z m-1056 2 c0 -5 -2 -10 -4 -10 -3 0 -8 5 -11 10
-3 6 -1 10 4 10 6 0 11 -4 11 -10z m350 0 c0 -5 -5 -10 -11 -10 -5 0 -7 5 -4
10 3 6 8 10 11 10 2 0 4 -4 4 -10z m380 -26 c0 -3 -7 -1 -15 6 -8 7 -15 17
-15 22 0 5 7 3 15 -6 8 -8 15 -18 15 -22z m190 32 c0 -3 -4 -8 -10 -11 -5 -3
-10 -1 -10 4 0 6 5 11 10 11 6 0 10 -2 10 -4z m45 -6 c3 -5 1 -10 -4 -10 -6 0
-11 5 -11 10 0 6 2 10 4 10 3 0 8 -4 11 -10z m-800 -10 c3 -5 1 -10 -4 -10 -6
0 -11 5 -11 10 0 6 2 10 4 10 3 0 8 -4 11 -10z m-90 -10 c3 -5 1 -10 -4 -10
-6 0 -11 5 -11 10 0 6 2 10 4 10 3 0 8 -4 11 -10z m151 -4 c20 -21 17 -28 -6
-14 -11 7 -20 16 -20 20 0 12 10 9 26 -6z m717 0 c4 -10 1 -13 -9 -9 -7 3 -14
9 -14 14 0 14 17 10 23 -5z m357 4 c0 -5 -2 -10 -4 -10 -3 0 -8 5 -11 10 -3 6
-1 10 4 10 6 0 11 -4 11 -10z m-505 -20 c10 -11 14 -20 9 -20 -5 0 -15 9 -22
20 -7 11 -11 20 -9 20 2 0 12 -9 22 -20z m212 5 c8 -9 13 -19 10 -22 -6 -5
-37 21 -37 31 0 10 11 6 27 -9z m-851 -9 c15 -16 18 -26 6 -26 -4 0 -13 9 -20
20 -14 23 -7 26 14 6z m39 4 c3 -5 1 -10 -4 -10 -6 0 -11 5 -11 10 0 6 2 10 4
10 3 0 8 -4 11 -10z m559 -6 c3 -8 2 -12 -4 -9 -6 3 -10 10 -10 16 0 14 7 11
14 -7z m-649 -4 c3 -5 1 -10 -4 -10 -6 0 -11 5 -11 10 0 6 2 10 4 10 3 0 8 -4
11 -10z m139 -39 c-1 -1 -12 3 -23 11 -12 8 -18 17 -15 21 6 5 43 -25 38 -32z
m541 19 c3 -5 1 -10 -4 -10 -6 0 -11 5 -11 10 0 6 2 10 4 10 3 0 8 -4 11 -10z
m50 0 c3 -5 1 -10 -4 -10 -6 0 -11 5 -11 10 0 6 2 10 4 10 3 0 8 -4 11 -10z
m100 0 c3 -5 1 -10 -4 -10 -6 0 -11 5 -11 10 0 6 2 10 4 10 3 0 8 -4 11 -10z
m85 -33 c0 -6 -9 -2 -20 8 -11 10 -20 23 -20 28 0 6 9 2 20 -8 11 -10 20 -23
20 -28z m900 33 c0 -5 -5 -10 -11 -10 -5 0 -7 5 -4 10 3 6 8 10 11 10 2 0 4
-4 4 -10z m-1775 -10 c3 -5 2 -10 -4 -10 -5 0 -13 5 -16 10 -3 6 -2 10 4 10 5
0 13 -4 16 -10z m771 -15 c15 -14 25 -28 22 -31 -3 -2 -19 9 -36 26 -37 36
-25 41 14 5z m154 -7 c0 -15 -15 -8 -28 12 -12 19 -11 20 8 8 11 -7 20 -16 20
-20z m-873 16 c-3 -3 -12 -4 -19 -1 -8 3 -5 6 6 6 11 1 17 -2 13 -5z m93 -4
c0 -5 -2 -10 -4 -10 -3 0 -8 5 -11 10 -3 6 -1 10 4 10 6 0 11 -4 11 -10z m50
0 c0 -5 -2 -10 -4 -10 -3 0 -8 5 -11 10 -3 6 -1 10 4 10 6 0 11 -4 11 -10z
m-230 -10 c0 -5 -5 -10 -11 -10 -5 0 -7 5 -4 10 3 6 8 10 11 10 2 0 4 -4 4
-10z m650 0 c0 -5 -2 -10 -4 -10 -3 0 -8 5 -11 10 -3 6 -1 10 4 10 6 0 11 -4
11 -10z m50 0 c0 -5 -4 -10 -10 -10 -5 0 -10 5 -10 10 0 6 5 10 10 10 6 0 10
-4 10 -10z m50 0 c0 -5 -2 -10 -4 -10 -3 0 -8 5 -11 10 -3 6 -1 10 4 10 6 0
11 -4 11 -10z m-690 -4 c0 -3 -4 -8 -10 -11 -5 -3 -10 -1 -10 4 0 6 5 11 10
11 6 0 10 -2 10 -4z m116 -34 c-6 -5 -36 23 -36 34 0 4 9 -1 20 -11 11 -10 18
-20 16 -23z m834 28 c0 -5 -2 -10 -4 -10 -3 0 -8 5 -11 10 -3 6 -1 10 4 10 6
0 11 -4 11 -10z m-495 -10 c3 -5 1 -10 -4 -10 -6 0 -11 5 -11 10 0 6 2 10 4
10 3 0 8 -4 11 -10z m160 0 c3 -5 1 -10 -4 -10 -6 0 -11 5 -11 10 0 6 2 10 4
10 3 0 8 -4 11 -10z m216 -11 c11 -11 19 -23 17 -25 -3 -2 -15 7 -28 21 -28
30 -19 34 11 4z m-521 7 c0 -3 -4 -8 -10 -11 -5 -3 -10 -1 -10 4 0 6 5 11 10
11 6 0 10 -2 10 -4z m570 -6 c0 -5 -2 -10 -4 -10 -3 0 -8 5 -11 10 -3 6 -1 10
4 10 6 0 11 -4 11 -10z m50 0 c0 -5 -4 -10 -10 -10 -5 0 -10 5 -10 10 0 6 5
10 10 10 6 0 10 -4 10 -10z m51 -17 c13 -16 12 -17 -3 -4 -10 7 -18 15 -18 17
0 8 8 3 21 -13z m-441 3 c0 -3 -4 -8 -10 -11 -5 -3 -10 -1 -10 4 0 6 5 11 10
11 6 0 10 -2 10 -4z m45 -6 c3 -5 1 -10 -4 -10 -6 0 -11 5 -11 10 0 6 2 10 4
10 3 0 8 -4 11 -10z m115 0 c0 -5 -4 -10 -9 -10 -6 0 -13 5 -16 10 -3 6 1 10
9 10 9 0 16 -4 16 -10z m50 0 c0 -5 -2 -10 -4 -10 -3 0 -8 5 -11 10 -3 6 -1
10 4 10 6 0 11 -4 11 -10z m50 0 c0 -5 -2 -10 -4 -10 -3 0 -8 5 -11 10 -3 6
-1 10 4 10 6 0 11 -4 11 -10z m230 0 c0 -5 -2 -10 -4 -10 -3 0 -8 5 -11 10 -3
6 -1 10 4 10 6 0 11 -4 11 -10z m50 -10 c0 -5 -2 -10 -4 -10 -3 0 -8 5 -11 10
-3 6 -1 10 4 10 6 0 11 -4 11 -10z m-1015 -20 c3 -5 1 -10 -4 -10 -6 0 -11 5
-11 10 0 6 2 10 4 10 3 0 8 -4 11 -10z m495 0 c0 -5 -4 -10 -10 -10 -5 0 -10
5 -10 10 0 6 5 10 10 10 6 0 10 -4 10 -10z m110 0 c0 -5 -2 -10 -4 -10 -3 0
-8 5 -11 10 -3 6 -1 10 4 10 6 0 11 -4 11 -10z m347 -5 c8 -9 13 -18 11 -21
-3 -2 -13 5 -23 16 -21 23 -11 27 12 5z m-257 -15 c0 -5 -4 -10 -10 -10 -5 0
-10 5 -10 10 0 6 5 10 10 10 6 0 10 -4 10 -10z m50 0 c0 -5 -2 -10 -4 -10 -3
0 -8 5 -11 10 -3 6 -1 10 4 10 6 0 11 -4 11 -10z m-480 -10 c0 -5 -2 -10 -4
-10 -3 0 -8 5 -11 10 -3 6 -1 10 4 10 6 0 11 -4 11 -10z m-695 -10 c3 -5 1
-10 -4 -10 -6 0 -11 5 -11 10 0 6 2 10 4 10 3 0 8 -4 11 -10z m1095 0 c0 -5
-5 -10 -11 -10 -5 0 -7 5 -4 10 3 6 8 10 11 10 2 0 4 -4 4 -10z m280 0 c0 -5
-7 -7 -15 -4 -8 4 -15 8 -15 10 0 2 7 4 15 4 8 0 15 -4 15 -10z m-442 -20 c7
-11 11 -20 9 -20 -2 0 -12 9 -22 20 -10 11 -14 20 -9 20 5 0 15 -9 22 -20z
m-243 -18 c-3 -3 -11 0 -18 7 -9 10 -8 11 6 5 10 -3 15 -9 12 -12z m205 8 c0
-5 -5 -10 -11 -10 -5 0 -7 5 -4 10 3 6 8 10 11 10 2 0 4 -4 4 -10z m110 0 c-8
-5 -19 -10 -25 -10 -5 0 -3 5 5 10 8 5 20 10 25 10 6 0 3 -5 -5 -10z m65 0 c3
-5 1 -10 -4 -10 -6 0 -11 5 -11 10 0 6 2 10 4 10 3 0 8 -4 11 -10z m-589 -31
c20 -22 23 -28 8 -19 -18 11 -50 50 -41 50 2 0 16 -14 33 -31z m924 -19 c0 -5
-2 -10 -4 -10 -3 0 -8 5 -11 10 -3 6 -1 10 4 10 6 0 11 -4 11 -10z m610 0 c0
-5 -5 -10 -11 -10 -5 0 -7 5 -4 10 3 6 8 10 11 10 2 0 4 -4 4 -10z m-763 -26
c-3 -3 -12 -4 -19 -1 -8 3 -5 6 6 6 11 1 17 -2 13 -5z m-172 -54 c3 -5 1 -10
-4 -10 -6 0 -11 5 -11 10 0 6 2 10 4 10 3 0 8 -4 11 -10z m-530 -20 c3 -5 1
-10 -4 -10 -6 0 -11 5 -11 10 0 6 2 10 4 10 3 0 8 -4 11 -10z m835 -20 c0 -5
-2 -10 -4 -10 -3 0 -8 5 -11 10 -3 6 -1 10 4 10 6 0 11 -4 11 -10z m-995 -180
c3 -5 1 -10 -4 -10 -6 0 -11 5 -11 10 0 6 2 10 4 10 3 0 8 -4 11 -10z m-20
-940 c3 -5 1 -10 -4 -10 -6 0 -11 5 -11 10 0 6 2 10 4 10 3 0 8 -4 11 -10z
m55 -10 c0 -5 -2 -10 -4 -10 -3 0 -8 5 -11 10 -3 6 -1 10 4 10 6 0 11 -4 11
-10z m-50 -40 c0 -5 -2 -10 -4 -10 -3 0 -8 5 -11 10 -3 6 -1 10 4 10 6 0 11
-4 11 -10z m170 -30 c0 -5 -2 -10 -4 -10 -3 0 -8 5 -11 10 -3 6 -1 10 4 10 6
0 11 -4 11 -10z m270 -40 c0 -5 -5 -10 -11 -10 -5 0 -7 5 -4 10 3 6 8 10 11
10 2 0 4 -4 4 -10z m65 -39 c-7 -6 -35 27 -35 41 0 7 9 2 20 -12 10 -14 17
-26 15 -29z m-290 29 c3 -5 1 -10 -4 -10 -6 0 -11 5 -11 10 0 6 2 10 4 10 3 0
8 -4 11 -10z m195 -10 c0 -5 -2 -10 -4 -10 -3 0 -8 5 -11 10 -3 6 -1 10 4 10
6 0 11 -4 11 -10z m50 -15 c0 -8 -2 -15 -4 -15 -2 0 -6 7 -10 15 -3 8 -1 15 4
15 6 0 10 -7 10 -15z m250 5 c0 -5 -2 -10 -4 -10 -3 0 -8 5 -11 10 -3 6 -1 10
4 10 6 0 11 -4 11 -10z m-1365 -10 c3 -6 -1 -7 -9 -4 -18 7 -21 14 -7 14 6 0
13 -4 16 -10z m-212 -17 c3 -5 -6 -9 -20 -10 -19 -1 -22 1 -12 8 17 11 26 11
32 2z m167 -7 c14 2 495 3 1070 3 711 1 1064 -2 1104 -10 363 -67 612 -211
826 -478 65 -81 170 -265 158 -276 -3 -4 -12 6 -20 22 -55 110 -113 189 -216
295 -130 133 -192 181 -324 250 -104 54 -176 82 -323 124 l-100 29 -1130 0
c-1227 0 -1205 1 -1399 -56 -252 -75 -434 -196 -583 -386 -36 -46 -67 -82 -70
-80 -7 8 81 139 131 194 61 68 152 139 248 195 43 25 74 49 70 53 -4 5 -2 5 5
2 6 -4 46 6 89 23 43 16 84 30 91 30 7 0 10 7 7 18 -4 12 -3 14 4 4 7 -11 24
-9 90 7 45 12 115 24 156 28 51 4 73 9 69 17 -5 8 -3 8 8 0 8 -5 25 -9 39 -8z
m1511 -771 c28 -14 83 -54 122 -88 40 -35 119 -101 177 -147 58 -46 179 -156
269 -244 191 -188 211 -220 211 -333 0 -44 -4 -73 -10 -73 -6 0 -37 13 -69 29
-32 17 -97 41 -145 54 -97 28 -112 38 -166 118 -36 53 -96 121 -221 253 -77
81 -92 75 -84 -31 8 -98 23 -171 42 -201 14 -22 20 -24 91 -21 50 3 88 -1 110
-10 36 -15 41 -27 15 -35 -37 -10 -355 -28 -396 -22 -48 7 -98 50 -116 99 -7
17 -11 106 -11 219 1 105 -2 193 -5 197 -4 3 -246 6 -538 6 -523 0 -533 0
-603 -22 -39 -13 -93 -37 -120 -55 -57 -38 -117 -114 -132 -166 -7 -24 -13
-389 -17 -1047 -7 -1104 -9 -1059 50 -1181 28 -58 102 -132 161 -162 86 -44
119 -45 869 -38 391 3 737 9 770 12 33 3 101 21 150 40 50 18 113 40 141 49
58 17 145 55 186 82 15 9 30 14 34 10 16 -16 -19 -120 -65 -189 -61 -93 -134
-158 -236 -209 -149 -73 -145 -73 -1000 -73 -853 -1 -808 -5 -969 74 -176 86
-285 217 -339 407 -21 78 -21 84 -25 1088 -4 1051 -1 1146 38 1248 29 75 106
192 159 239 49 44 171 111 245 134 32 10 193 13 709 13 l668 1 50 -25z m444
-970 c88 -24 236 -97 303 -149 105 -80 196 -187 246 -289 67 -135 88 -224 89
-382 0 -140 -15 -220 -69 -348 -78 -185 -233 -342 -439 -445 -114 -57 -205
-83 -315 -89 -228 -13 -433 71 -620 257 -134 133 -206 260 -251 445 -21 91
-26 265 -8 359 21 116 104 275 198 379 115 128 311 241 482 277 68 14 314 5
384 -15z"/>
<path d="M5375 9840 c3 -5 8 -10 11 -10 2 0 4 5 4 10 0 6 -5 10 -11 10 -5 0
-7 -4 -4 -10z"/>
<path d="M4810 9900 c0 -5 5 -10 10 -10 6 0 10 5 10 10 0 6 -4 10 -10 10 -5 0
-10 -4 -10 -10z"/>
<path d="M4810 9854 c0 -9 32 -33 44 -34 5 0 1 9 -9 20 -18 20 -35 26 -35 14z"/>
<path d="M5800 5571 c-158 -50 -302 -170 -365 -303 -51 -107 -70 -220 -56
-325 46 -330 289 -564 586 -563 142 1 321 73 413 168 60 62 89 112 133 227 71
188 65 334 -21 505 -46 92 -179 210 -293 260 -117 52 -290 66 -397 31z m191
-177 c27 -9 58 -14 69 -11 12 3 20 0 20 -7 0 -13 81 -56 105 -56 8 0 15 -9 15
-20 0 -18 -7 -20 -60 -20 -53 0 -60 2 -60 20 0 11 -7 20 -15 20 -17 0 -22 -65
-5 -75 6 -3 10 -14 10 -23 0 -11 -13 -2 -39 28 -28 32 -42 42 -50 34 -12 -11
33 -46 231 -178 182 -122 189 -109 -176 -342 -199 -126 -228 -136 -265 -88
-19 25 -21 40 -21 195 0 106 -4 169 -10 169 -5 0 -10 -10 -11 -22 l0 -23 -9
23 c-5 12 -13 22 -18 22 -5 0 -9 28 -9 61 0 55 -2 64 -26 81 -22 16 -27 28
-27 59 0 51 12 75 64 122 31 29 47 36 64 32 13 -3 21 -2 18 3 -9 15 155 12
205 -4z m519 -604 c0 -5 -5 -10 -11 -10 -5 0 -7 5 -4 10 3 6 8 10 11 10 2 0 4
-4 4 -10z"/>
<path d="M5951 5294 c0 -11 3 -14 6 -6 3 7 2 16 -1 19 -3 4 -6 -2 -5 -13z"/>
<path d="M4190 10225 c0 -19 36 -25 65 -12 37 18 30 25 -20 25 -28 -1 -45 -6
-45 -13z"/>
<path d="M4315 10214 c14 -14 28 -24 31 -22 6 6 -35 48 -47 48 -5 0 2 -12 16
-26z"/>
<path d="M4660 10235 c0 -3 12 -17 28 -30 30 -26 52 -25 83 6 24 24 3 26 -29
3 -13 -9 -26 -13 -30 -9 -3 3 0 10 8 15 8 5 11 12 7 16 -4 4 -13 2 -19 -4 -15
-15 -32 -16 -23 -2 3 6 -1 10 -9 10 -9 0 -16 -2 -16 -5z"/>
<path d="M4830 10232 c0 -5 9 -17 20 -27 22 -20 26 -9 6 18 -14 18 -26 22 -26
9z"/>
<path d="M4910 10232 c0 -6 9 -14 20 -17 21 -7 28 -25 10 -25 -15 0 -12 -17 4
-23 10 -4 13 -1 9 9 -6 16 13 20 20 4 3 -6 4 -5 3 1 -3 16 -66 65 -66 51z"/>
<path d="M5010 10231 c0 -5 5 -13 10 -16 6 -3 10 -2 10 4 0 5 -4 13 -10 16 -5
3 -10 2 -10 -4z"/>
<path d="M5061 10231 c-12 -8 -13 -14 -3 -35 6 -14 16 -26 22 -26 16 0 12 18
-7 29 -17 9 -17 11 2 25 21 16 10 22 -14 7z"/>
<path d="M5664 10226 c-14 -15 0 -46 21 -46 7 0 15 -4 17 -9 2 -5 12 -3 23 6
20 15 20 15 -1 11 -11 -3 -29 1 -40 9 -19 14 -19 14 0 29 14 10 15 14 5 14 -8
-1 -19 -7 -25 -14z"/>
<path d="M5930 10233 c1 -11 26 -43 34 -43 3 0 6 6 6 14 0 27 16 24 33 -6 l17
-30 -24 6 c-16 4 -30 0 -40 -9 -17 -17 -36 -20 -36 -5 0 6 5 10 10 10 16 0 11
28 -7 38 -18 11 -52 -13 -38 -26 4 -4 10 -1 12 6 3 6 9 12 14 12 14 0 11 -28
-3 -33 -10 -4 -9 -8 2 -16 8 -5 11 -14 6 -18 -4 -4 -19 5 -32 20 -13 15 -24
23 -24 17 0 -5 9 -18 19 -27 11 -9 18 -20 15 -25 -9 -14 24 -9 40 7 8 8 19 15
25 15 16 0 13 -17 -4 -24 -19 -7 -19 -33 -1 -52 18 -17 33 -18 39 -1 4 9 8 8
17 -3 9 -11 13 -12 17 -2 2 6 11 12 19 12 20 0 17 9 -8 31 -13 11 -18 18 -13
17 6 -2 10 2 10 7 0 6 -11 9 -25 8 -14 -1 -17 1 -7 4 9 2 17 10 17 17 0 7 7
13 15 13 8 0 15 -6 15 -14 0 -7 5 -13 10 -13 13 0 13 13 -1 27 -8 8 -8 13 0
18 8 4 6 11 -4 22 -9 8 -19 12 -23 8 -4 -4 -1 -10 6 -12 16 -6 15 -23 -2 -23
-21 0 -27 38 -8 50 21 11 -43 7 -72 -5 -14 -6 -17 -5 -12 3 4 7 2 12 -3 12 -6
0 -11 -3 -11 -7z m65 -73 c3 -5 -1 -10 -9 -10 -9 0 -16 5 -16 10 0 6 4 10 9
10 6 0 13 -4 16 -10z m30 -71 c14 -21 -6 -22 -21 -1 -14 21 -41 22 -29 1 3 -5
-1 -6 -9 -3 -21 8 -20 22 2 27 19 4 47 -7 57 -24z"/>
<path d="M6060 10234 c0 -10 28 -34 39 -34 6 0 11 5 11 10 0 6 -7 10 -15 10
-8 0 -15 5 -15 10 0 6 -4 10 -10 10 -5 0 -10 -3 -10 -6z"/>
<path d="M6296 10225 c-17 -13 -17 -15 -3 -29 20 -21 31 -20 23 0 -4 10 1 22
11 30 14 11 15 13 3 13 -8 0 -23 -6 -34 -14z"/>
<path d="M4880 10221 c0 -5 6 -12 13 -15 9 -3 7 -8 -5 -16 -9 -6 -24 -17 -32
-25 -8 -8 -19 -15 -25 -15 -17 0 -13 18 5 28 11 6 13 11 5 16 -6 4 -11 2 -11
-3 0 -15 -33 -14 -48 1 -7 7 -12 8 -12 2 0 -5 11 -18 25 -28 19 -15 23 -22 14
-32 -8 -9 -8 -14 -1 -14 6 0 12 6 15 13 3 9 8 9 18 -2 11 -11 12 -14 1 -18
-10 -4 -9 -9 4 -24 9 -10 21 -19 26 -19 5 0 2 7 -7 16 -11 12 -13 20 -5 29 8
10 7 14 -2 17 -10 4 -9 9 4 21 18 18 38 22 38 8 0 -5 -6 -11 -12 -14 -7 -2 -9
-8 -5 -13 4 -5 12 -2 17 5 7 12 13 11 37 -4 15 -10 36 -27 46 -38 9 -11 20
-17 23 -14 4 4 -4 16 -17 27 -20 17 -22 21 -9 30 21 14 33 12 27 -4 -6 -16 29
-53 40 -42 5 4 -1 12 -11 18 -15 8 -16 12 -5 19 12 8 12 11 -1 20 -11 8 -12
12 -2 16 6 2 12 10 12 16 0 5 -3 7 -7 4 -3 -4 -17 3 -30 15 -27 25 -32 18 -6
-8 13 -13 14 -19 5 -22 -7 -2 -19 -10 -26 -18 -8 -8 -17 -14 -21 -14 -4 0 -13
6 -21 14 -7 8 -19 17 -26 19 -10 4 -10 8 1 15 12 9 12 13 -2 26 -18 18 -27 20
-27 7z"/>
<path d="M4800 10210 c0 -5 5 -10 10 -10 6 0 10 5 10 10 0 6 -4 10 -10 10 -5
0 -10 -4 -10 -10z"/>
<path d="M5100 10210 c0 -5 5 -10 10 -10 6 0 10 5 10 10 0 6 -4 10 -10 10 -5
0 -10 -4 -10 -10z"/>
<path d="M5165 10210 c3 -5 8 -10 11 -10 2 0 4 5 4 10 0 6 -5 10 -11 10 -5 0
-7 -4 -4 -10z"/>
<path d="M5735 10210 c-3 -5 -1 -10 4 -10 6 0 11 5 11 10 0 6 -2 10 -4 10 -3
0 -8 -4 -11 -10z"/>
<path d="M5430 10195 c-14 -16 -10 -18 14 -9 9 3 16 10 16 15 0 14 -16 11 -30
-6z"/>
<path d="M5770 10200 c-12 -8 -12 -12 -2 -18 7 -5 10 -16 7 -24 -8 -19 18 -30
51 -22 17 4 24 2 24 -9 0 -8 7 -18 15 -21 14 -5 13 -1 -2 24 -17 29 -43 41
-43 20 0 -5 -7 -10 -16 -10 -8 0 -12 5 -9 10 4 6 1 18 -6 26 -10 13 -10 17 2
25 8 5 10 9 4 9 -5 0 -17 -5 -25 -10z"/>
<path d="M4660 10190 c0 -5 7 -10 16 -10 8 0 12 5 9 10 -3 6 -10 10 -16 10 -5
0 -9 -4 -9 -10z"/>
<path d="M5125 10190 c-3 -5 1 -10 9 -10 9 0 16 5 16 10 0 6 -4 10 -9 10 -6 0
-13 -4 -16 -10z"/>
<path d="M5826 10185 c-11 -8 -15 -15 -9 -15 6 0 16 7 23 15 16 19 11 19 -14
0z"/>
<path d="M5541 10166 c-21 -22 -21 -24 -3 -28 15 -4 18 -1 15 12 -6 22 15 37
23 16 5 -12 10 -13 30 -4 24 11 33 28 14 28 -5 0 -10 -4 -10 -10 0 -5 -7 -10
-15 -10 -8 0 -15 5 -15 10 0 17 -15 11 -39 -14z"/>
<path d="M5645 10178 c3 -8 -12 -24 -35 -38 -40 -25 -53 -50 -25 -50 9 0 12 6
9 15 -4 9 0 15 10 15 9 0 16 5 16 10 0 6 7 10 15 10 8 0 15 5 15 10 0 6 5 10
10 10 17 0 11 -21 -12 -41 -13 -10 -17 -18 -10 -19 6 0 12 4 12 9 0 15 30 21
51 11 15 -8 19 -7 19 5 0 8 5 15 10 15 15 0 12 -16 -5 -30 -8 -7 -22 -10 -30
-6 -8 3 -15 1 -15 -4 0 -6 -8 -10 -17 -10 -17 -1 -17 -2 1 -15 10 -8 15 -19
10 -26 -5 -9 -10 -8 -19 5 -12 15 -14 15 -35 -2 -21 -17 -21 -18 -2 -35 13
-12 22 -15 27 -8 3 6 1 11 -4 11 -6 0 -11 7 -11 15 0 18 12 19 28 3 8 -8 18
-3 41 20 32 35 47 41 37 16 -5 -14 -4 -15 8 -5 16 13 28 2 23 -21 -2 -7 -2
-10 0 -5 3 4 9 7 14 7 15 0 10 -22 -8 -36 -17 -13 -17 -13 0 -14 9 0 17 5 17
11 0 6 7 9 15 5 12 -4 13 -2 5 13 -5 11 -17 27 -26 36 -9 9 -13 19 -9 23 4 4
10 1 12 -5 6 -16 30 -17 35 -1 3 9 6 9 12 0 4 -7 2 -12 -3 -12 -15 0 -14 -27
2 -33 7 -3 -2 -18 -26 -39 -36 -33 -36 -35 -19 -51 26 -24 39 -21 17 3 -20 22
-14 26 14 8 20 -12 26 -8 60 35 13 16 12 20 -8 34 -15 10 -21 22 -17 35 7 30
-17 50 -50 42 -16 -4 -25 -3 -21 3 8 12 -50 46 -63 38 -6 -4 -26 5 -45 20 -19
14 -32 20 -30 13z m120 -68 c3 -5 -1 -10 -10 -10 -9 0 -13 5 -10 10 3 6 8 10
10 10 2 0 7 -4 10 -10z m-65 -30 c0 -5 -4 -10 -10 -10 -5 0 -10 5 -10 10 0 6
5 10 10 10 6 0 10 -4 10 -10z m164 -68 c3 -5 -4 -16 -16 -26 -14 -13 -23 -15
-31 -7 -8 8 -6 11 6 11 9 0 17 7 17 15 0 16 15 20 24 7z"/>
<path d="M4736 10165 c4 -8 12 -15 19 -15 7 0 15 -5 17 -12 3 -7 10 -8 17 -4
9 6 5 13 -16 27 -34 23 -44 24 -37 4z"/>
<path d="M5348 10173 c7 -3 16 -2 19 1 4 3 -2 6 -13 5 -11 0 -14 -3 -6 -6z"/>
<path d="M5500 10170 c0 -5 5 -10 10 -10 6 0 10 5 10 10 0 6 -4 10 -10 10 -5
0 -10 -4 -10 -10z"/>
<path d="M5253 10154 c-7 -7 -9 -15 -5 -17 4 -3 13 1 19 9 7 7 9 15 5 17 -4 3
-13 -1 -19 -9z"/>
<path d="M5450 10159 c0 -5 5 -7 10 -4 6 3 10 8 10 11 0 2 -4 4 -10 4 -5 0
-10 -5 -10 -11z"/>
<path d="M5430 10148 c0 -6 15 -23 33 -39 17 -16 27 -29 22 -29 -6 0 -16 5
-23 12 -7 7 -12 8 -12 2 0 -11 21 -34 31 -34 4 0 10 7 13 16 4 11 -6 28 -29
50 -19 18 -35 28 -35 22z"/>
<path d="M5061 10134 c-7 -8 -10 -18 -6 -22 3 -3 10 -1 14 6 6 10 13 11 34 1
29 -13 38 -35 11 -25 -15 6 -15 4 -3 -10 12 -15 15 -14 30 5 10 12 22 21 28
21 6 0 11 5 11 10 0 14 -27 12 -34 -2 -5 -10 -7 -10 -12 0 -3 6 -14 12 -25 12
-10 0 -19 5 -19 10 0 14 -13 12 -29 -6z"/>
<path d="M5392 10136 c7 -8 15 -12 17 -11 5 6 -10 25 -20 25 -5 0 -4 -6 3 -14z"/>
<path d="M5350 10126 c0 -8 -5 -16 -11 -18 -7 -2 -10 -9 -8 -15 2 -6 12 -1 22
12 10 15 13 26 7 30 -5 3 -10 0 -10 -9z"/>
<path d="M5220 10117 c8 -7 23 -20 33 -30 9 -10 17 -14 17 -9 0 15 -36 52 -51
52 -11 -1 -11 -3 1 -13z"/>
<path d="M4919 10111 c8 -5 11 -16 7 -27 -4 -10 -1 -21 6 -25 9 -6 9 -11 -2
-24 -10 -12 -11 -18 -1 -28 10 -9 11 -8 6 5 -8 20 27 42 55 33 10 -3 21 -1 25
5 4 6 -9 10 -34 10 -39 0 -53 11 -30 25 11 7 -17 34 -36 35 -5 0 -4 -4 4 -9z"/>
<path d="M4880 10100 c8 -5 20 -10 25 -10 6 0 3 5 -5 10 -8 5 -19 10 -25 10
-5 0 -3 -5 5 -10z"/>
<path d="M5190 10101 c0 -5 6 -12 13 -14 9 -4 8 -8 -3 -16 -8 -5 -12 -12 -10
-15 3 -2 13 2 24 9 17 13 17 15 3 29 -18 18 -27 20 -27 7z"/>
<path d="M5420 10100 c0 -5 5 -10 10 -10 6 0 10 5 10 10 0 6 -4 10 -10 10 -5
0 -10 -4 -10 -10z"/>
<path d="M5530 10100 c0 -5 7 -10 16 -10 8 0 12 5 9 10 -3 6 -10 10 -16 10 -5
0 -9 -4 -9 -10z"/>
<path d="M5060 10080 c0 -18 -3 -19 -22 -9 -22 11 -22 10 -6 -6 14 -16 19 -16
33 -5 14 12 18 11 25 0 5 -8 12 -11 16 -7 4 4 -3 16 -16 27 -29 25 -30 25 -30
0z"/>
<path d="M5165 10080 c3 -5 8 -10 11 -10 2 0 4 5 4 10 0 6 -5 10 -11 10 -5 0
-7 -4 -4 -10z"/>
<path d="M5280 10084 c0 -4 15 -20 33 -35 26 -23 29 -30 18 -38 -12 -8 -12
-12 3 -26 9 -10 20 -14 24 -11 3 4 0 11 -8 16 -12 7 -11 13 8 33 27 29 29 47
2 22 -18 -16 -20 -16 -20 -2 0 10 -6 17 -14 17 -8 0 -22 7 -30 16 -9 8 -16 12
-16 8z"/>
<path d="M5515 10070 c3 -5 8 -10 11 -10 2 0 4 5 4 10 0 6 -5 10 -11 10 -5 0
-7 -4 -4 -10z"/>
<path d="M4755 10044 c-16 -13 -25 -27 -22 -31 4 -3 19 4 33 18 20 18 27 21
33 10 5 -7 13 -12 19 -10 6 2 0 12 -12 21 -22 16 -24 15 -51 -8z"/>
<path d="M4830 10062 c0 -4 9 -15 20 -25 19 -16 23 -16 43 -2 22 16 22 16 -5
9 -17 -3 -28 -2 -28 4 0 5 -7 12 -15 16 -8 3 -15 2 -15 -2z"/>
<path d="M5140 10061 c0 -5 6 -12 13 -14 9 -4 8 -8 -3 -16 -13 -9 -13 -12 -1
-20 12 -8 11 -12 -3 -27 -27 -26 -84 -25 -112 3 -13 13 -29 23 -36 23 -8 -1
-5 -7 7 -18 12 -9 24 -25 28 -34 7 -20 32 -24 42 -8 5 8 11 7 20 0 16 -13 41
-2 69 31 15 17 15 23 5 30 -12 8 -12 11 0 18 12 8 12 12 -2 25 -18 18 -27 20
-27 7z"/>
<path d="M5240 10059 c0 -5 -7 -9 -15 -9 -8 0 -15 -4 -15 -10 0 -14 28 -12 33
3 2 6 8 9 12 4 5 -4 4 -12 -3 -19 -11 -11 7 -38 26 -38 6 0 12 -6 15 -12 2 -7
8 -9 13 -5 5 4 2 12 -6 18 -13 8 -13 10 0 18 8 6 11 13 7 18 -5 4 -12 1 -17
-7 -5 -8 -12 -11 -16 -7 -4 3 -2 12 4 19 8 10 4 16 -14 25 -13 6 -24 7 -24 2z"/>
<path d="M5870 10050 c0 -5 5 -10 10 -10 6 0 10 5 10 10 0 6 -4 10 -10 10 -5
0 -10 -4 -10 -10z"/>
<path d="M5066 10034 c-4 -10 -12 -14 -24 -9 -13 5 -14 3 -5 -6 9 -9 16 -8 33
4 12 8 17 18 12 21 -6 3 -13 -1 -16 -10z"/>
<path d="M4785 10010 c3 -5 8 -10 11 -10 2 0 4 5 4 10 0 6 -5 10 -11 10 -5 0
-7 -4 -4 -10z"/>
<path d="M4870 9995 c-9 -10 -9 -15 -1 -15 6 0 11 4 11 9 0 5 8 12 18 14 14 4
14 5 1 6 -9 0 -22 -6 -29 -14z"/>
<path d="M5110 9999 c0 -6 -9 -8 -20 -4 -11 4 -20 2 -20 -4 0 -12 20 -14 44
-5 18 7 22 24 6 24 -5 0 -10 -5 -10 -11z"/>
<path d="M4910 9980 c0 -5 5 -10 10 -10 6 0 10 5 10 10 0 6 -4 10 -10 10 -5 0
-10 -4 -10 -10z"/>
<path d="M5435 9980 c-3 -5 -1 -10 4 -10 6 0 11 5 11 10 0 6 -2 10 -4 10 -3 0
-8 -4 -11 -10z"/>
<path d="M5002 9943 c15 -15 30 -24 33 -21 9 9 -27 48 -44 48 -11 0 -7 -8 11
-27z"/>
<path d="M5750 9940 c0 -5 7 -10 16 -10 8 0 12 5 9 10 -3 6 -10 10 -16 10 -5
0 -9 -4 -9 -10z"/>
</g>
</svg>
