<?xml version="1.0" standalone="no"?>
<!DOCTYPE svg PUBLIC "-//W3C//DTD SVG 20010904//EN"
 "http://www.w3.org/TR/2001/REC-SVG-20010904/DTD/svg10.dtd">
<svg version="1.0" xmlns="http://www.w3.org/2000/svg"
 width="1536.000000pt" height="1536.000000pt" viewBox="0 0 1536.000000 1536.000000"
 preserveAspectRatio="xMidYMid meet">
<metadata>
Created by potrace 1.14, written by Peter Selinger 2001-2017
</metadata>
<g transform="translate(0.000000,1536.000000) scale(0.100000,-0.100000)"
fill="#000000" stroke="none">
<path d="M7060 12225 c-156 -16 -350 -54 -469 -91 -25 -8 -62 -14 -83 -14 -21
0 -38 -4 -38 -10 0 -5 -15 -10 -33 -10 -18 0 -37 -4 -43 -9 -5 -5 -36 -16 -69
-26 -33 -9 -82 -25 -110 -35 -27 -10 -61 -22 -75 -25 -42 -11 -264 -97 -275
-106 -5 -5 -15 -9 -23 -9 -14 0 -102 -43 -212 -103 -36 -19 -99 -53 -140 -74
-177 -92 -657 -418 -794 -538 -121 -106 -400 -398 -497 -520 -89 -111 -340
-468 -422 -600 -135 -217 -297 -540 -382 -760 -49 -126 -72 -189 -82 -225 -6
-19 -22 -73 -36 -120 -14 -47 -30 -114 -36 -150 -6 -36 -18 -94 -26 -130 -8
-36 -19 -96 -24 -135 -6 -38 -16 -101 -21 -140 -27 -170 -40 -394 -40 -686 0
-457 24 -703 96 -976 13 -51 24 -100 24 -109 0 -17 32 -118 82 -264 17 -47 32
-94 35 -105 3 -11 12 -36 20 -55 8 -19 18 -44 23 -55 4 -11 15 -39 24 -62 8
-23 25 -64 37 -90 12 -26 27 -61 34 -78 62 -142 160 -345 227 -467 28 -51 56
-102 62 -113 6 -11 21 -34 33 -52 13 -17 23 -33 23 -35 0 -3 43 -70 96 -149
144 -215 342 -474 454 -594 231 -247 516 -484 790 -655 129 -81 463 -270 477
-270 24 0 13 17 -17 30 -33 14 -52 33 -23 24 67 -22 73 -26 63 -45 -11 -19 -8
-21 150 -92 77 -34 97 -39 105 -27 3 6 -3 10 -14 10 -12 0 -42 11 -69 24 -26
14 -73 37 -104 51 -32 15 -55 31 -53 36 7 10 24 4 141 -52 102 -50 108 -52
259 -109 111 -41 317 -105 455 -140 379 -97 708 -131 1195 -124 431 6 591 23
855 90 74 18 189 45 255 58 218 45 429 122 805 294 353 161 366 168 487 249
52 35 97 63 99 63 13 0 226 159 349 260 172 141 397 357 522 499 137 156 392
510 470 651 11 19 34 61 51 92 68 122 161 318 186 392 8 25 40 105 69 178 61
150 90 231 119 333 11 39 27 93 35 120 8 28 19 73 23 100 4 28 17 86 28 130
11 44 25 107 32 140 6 33 16 78 21 100 19 79 31 151 39 225 5 41 16 143 26
225 23 205 23 614 -1 815 -10 80 -21 174 -25 210 -9 77 -26 170 -39 214 -5 17
-14 58 -21 91 -7 33 -21 85 -32 115 -11 30 -23 73 -28 95 -10 50 -64 211 -96
288 -13 32 -24 64 -24 71 0 37 -210 486 -306 656 -163 288 -519 776 -694 951
-110 110 -323 298 -459 404 -35 28 -78 61 -95 75 -87 72 -360 246 -476 305
-41 20 -98 53 -128 71 -29 19 -54 34 -56 34 -2 0 -61 27 -130 60 -70 33 -131
60 -137 60 -6 0 -32 11 -58 24 -41 21 -75 37 -146 66 -11 4 -40 13 -65 20 -25
7 -70 22 -100 33 -30 11 -71 23 -90 27 -19 5 -78 20 -130 35 -52 15 -113 31
-135 36 -22 4 -85 19 -140 34 -55 14 -131 30 -170 36 -311 48 -279 46 -785 47
-311 0 -526 -5 -600 -13z m760 -295 c190 -4 301 -15 485 -50 88 -17 198 -37
245 -46 96 -18 232 -52 240 -61 3 -3 -6 -3 -20 1 -14 3 -137 29 -275 57 -381
77 -444 83 -845 82 -318 -1 -358 -4 -509 -27 -91 -14 -166 -24 -168 -22 -10
10 268 54 392 62 61 3 111 7 112 8 2 2 45 1 343 -4z m1248 -242 c103 -32 274
-102 337 -137 53 -29 33 -22 -105 37 -63 27 -172 68 -242 91 -71 24 -128 45
-128 48 0 5 3 4 138 -39z m-1224 -92 c102 -43 218 -167 252 -268 22 -67 21
-191 -2 -261 -65 -199 -278 -338 -469 -307 -138 22 -215 67 -293 172 -69 93
-86 151 -80 284 6 125 29 180 116 271 72 75 162 124 247 132 80 8 181 -2 229
-23z m603 -86 c311 -59 504 -122 908 -297 146 -63 328 -165 498 -279 164 -110
193 -131 381 -283 411 -331 829 -908 1050 -1449 24 -59 64 -156 89 -217 47
-116 75 -202 112 -350 12 -49 26 -99 30 -109 8 -18 5 -19 -31 -13 -21 4 -81 7
-132 7 -65 0 -94 4 -96 13 -2 6 -12 50 -22 97 -47 225 -159 511 -292 749 -232
415 -465 717 -768 994 -300 274 -509 417 -859 589 -276 136 -589 237 -905 295
l-45 8 -7 80 c-4 44 -12 98 -17 120 -11 44 -14 65 -7 65 3 0 54 -9 113 -20z
m1048 -8 c-3 -3 -11 0 -18 7 -9 10 -8 11 6 5 10 -3 15 -9 12 -12z m-2495 -49
c0 -32 -3 -88 -6 -124 l-7 -65 -101 -18 c-170 -29 -298 -64 -474 -131 -311
-117 -492 -208 -742 -370 -305 -199 -620 -497 -876 -830 -53 -68 -251 -361
-273 -401 -11 -22 -20 -34 -21 -29 -1 30 206 338 337 501 40 51 73 96 73 100
0 5 15 23 32 39 17 17 38 41 47 55 9 14 79 84 156 155 77 72 168 157 202 190
79 77 113 107 113 100 0 -2 9 3 20 12 30 26 24 32 -14 14 -18 -9 -31 -20 -28
-25 3 -5 -1 -6 -8 -1 -10 6 -9 11 5 22 11 7 25 13 33 13 7 0 10 5 7 10 -6 9 8
14 28 11 5 -1 5 3 2 9 -5 8 -15 6 -32 -5 -13 -9 -30 -14 -36 -11 -7 2 -4 5 6
5 9 1 17 6 17 12 0 5 -6 7 -12 3 -10 -6 -10 -5 -1 8 7 8 9 19 5 23 -4 5 -1 4
7 0 10 -6 13 -4 9 7 -5 11 0 14 16 13 19 -2 22 1 18 20 -2 12 1 26 7 29 6 4 8
-2 6 -14 -2 -11 0 -18 6 -15 5 4 7 10 4 15 -6 10 42 70 56 70 5 0 9 -5 9 -11
0 -5 -4 -8 -9 -4 -15 9 -25 -15 -12 -28 9 -9 10 -7 5 7 -5 13 -4 17 4 12 6 -3
13 -2 17 4 4 6 10 8 15 5 4 -3 14 3 21 12 10 12 10 14 2 9 -9 -5 -13 0 -13 16
0 17 3 19 9 10 6 -10 10 -8 15 11 3 13 14 27 24 29 20 6 25 35 10 55 -6 7 -4
14 3 19 8 5 9 3 4 -5 -5 -9 -2 -12 10 -9 28 5 29 26 1 23 -85 -10 -457 -279
-676 -490 -80 -77 -163 -156 -185 -175 -87 -78 61 75 210 216 201 191 355 308
565 434 52 32 144 87 205 124 60 36 143 80 185 97 41 17 127 53 190 79 239
100 530 183 734 209 33 5 64 9 69 10 4 0 7 -25 7 -56z m-1386 -599 c3 -8 2
-12 -4 -9 -6 3 -10 10 -10 16 0 14 7 11 14 -7z m628 -275 c203 -42 373 -229
386 -423 8 -124 -30 -244 -103 -325 -48 -53 -162 -124 -245 -151 -51 -18 -78
-21 -129 -16 -190 17 -335 122 -408 296 -24 57 -27 78 -28 175 0 108 1 112 39
190 97 199 284 296 488 254z m3144 -20 c134 -49 243 -147 295 -264 33 -75 38
-229 11 -310 -48 -141 -121 -227 -244 -289 -66 -34 -87 -39 -165 -43 -77 -5
-98 -2 -166 21 -96 32 -138 59 -203 128 -149 157 -176 381 -69 564 72 123 277
230 421 219 33 -2 87 -14 120 -26z m-1602 -87 c8 -49 8 -607 -1 -760 l-6 -121
-98 2 -99 2 0 460 0 460 99 -3 99 -3 6 -37z m589 -298 c71 -52 88 -152 37
-222 -57 -79 -119 -89 -198 -32 -50 36 -72 76 -72 131 0 38 6 48 55 97 54 54
55 55 103 50 27 -3 61 -13 75 -24z m-1216 -13 c44 -32 73 -83 73 -129 0 -66
-78 -132 -157 -132 -35 0 -50 7 -82 35 -71 65 -78 128 -20 199 54 65 120 75
186 27z m3019 -123 c45 -35 53 -50 54 -94 0 -79 -68 -147 -149 -148 -76 -1
-121 53 -121 145 0 35 6 48 39 80 35 36 43 39 93 39 42 0 62 -5 84 -22z
m-4807 -4 c58 -34 90 -120 63 -169 -5 -11 -24 -33 -42 -50 -25 -24 -40 -30
-73 -29 -64 1 -102 26 -122 78 -23 60 -13 110 30 153 27 27 41 33 75 33 23 0
54 -7 69 -16z m-1059 -444 c-6 -11 -13 -20 -16 -20 -2 0 0 9 6 20 6 11 13 20
16 20 2 0 0 -9 -6 -20z m129 -241 c-116 -209 -202 -424 -254 -634 -19 -77 -36
-151 -37 -165 -3 -24 -6 -25 -105 -31 -55 -4 -113 -9 -127 -13 -24 -6 -25 -5
-16 19 5 13 14 55 21 92 6 38 19 102 30 145 21 86 109 341 116 335 2 -3 -15
-58 -37 -123 -46 -133 -74 -239 -89 -329 -5 -33 -13 -73 -17 -89 l-7 -29 59 8
c32 4 75 8 94 9 44 1 61 14 47 38 -6 9 -15 14 -20 11 -5 -3 -3 -9 4 -14 8 -5
9 -9 3 -9 -6 0 -18 8 -25 17 -8 10 -9 14 -2 10 13 -8 45 31 37 45 -3 4 2 5 10
2 16 -6 44 60 66 156 22 93 159 416 227 535 49 85 67 114 71 110 2 -1 -20 -45
-49 -96z m698 56 c250 -48 393 -230 393 -500 0 -81 -3 -92 -36 -157 -92 -174
-317 -298 -486 -268 -73 14 -98 24 -168 71 -66 45 -118 97 -159 163 -46 74
-37 77 12 5 37 -57 86 -102 174 -164 15 -11 30 -20 33 -21 3 0 23 -9 45 -19
65 -30 175 -26 255 9 188 82 321 228 320 352 -2 264 -126 453 -330 502 -133
32 -287 18 -376 -33 -125 -73 -206 -260 -191 -439 4 -40 3 -51 -3 -31 -25 95
0 243 59 343 63 108 128 154 261 187 73 18 104 18 197 0z m5326 -1 c79 -20
103 -33 176 -94 52 -43 68 -66 113 -156 51 -102 53 -111 56 -200 3 -69 -1
-107 -13 -146 -48 -146 -122 -235 -242 -291 -116 -54 -184 -65 -277 -45 -180
40 -303 138 -362 291 -23 61 -29 68 -48 62 -11 -4 -37 -9 -56 -12 -34 -4 -34
-4 -11 9 13 7 25 22 27 33 5 34 25 98 44 140 11 22 28 72 40 112 55 192 211
310 414 312 43 1 106 -6 139 -15z m-2260 -152 c34 -32 122 -111 194 -176 132
-116 229 -221 394 -425 47 -58 100 -116 116 -128 l30 -21 1 -1168 2 -1167
-1205 4 -1205 4 -1 435 c-3 1378 -9 2648 -13 2665 -5 20 0 20 392 20 350 -1
1032 7 1180 13 53 2 55 1 115 -56z m-3038 -66 c92 -43 145 -128 145 -233 0
-57 -5 -76 -30 -119 -65 -114 -165 -157 -281 -122 -51 15 -114 70 -140 120
-23 46 -35 132 -22 165 6 15 8 2 9 -45 1 -140 93 -232 232 -232 81 0 153 46
195 125 29 54 31 177 3 221 -53 84 -118 124 -216 134 l-65 7 60 1 c44 1 73 -4
110 -22z m-215 -9 c0 -2 -10 -12 -22 -23 l-23 -19 19 23 c18 21 26 27 26 19z
m4576 -173 l241 -7 -1 -93 c-1 -73 -4 -95 -16 -101 -8 -4 -133 -9 -277 -11
l-263 -3 0 117 0 117 38 -6 c20 -4 145 -9 278 -13z m-3341 -92 l0 -97 -305 0
-305 0 -3 88 -3 87 183 1 c101 1 215 5 253 9 39 4 95 8 125 8 l55 2 0 -98z
m5214 -711 c118 -37 215 -117 267 -221 23 -45 29 -72 32 -149 8 -168 -36 -290
-142 -388 -68 -64 -143 -97 -249 -109 -104 -12 -259 46 -343 130 -56 57 -111
172 -121 255 -12 107 30 244 106 339 109 137 287 194 450 143z m-7060 -26 c83
-46 170 -130 202 -198 78 -165 53 -395 -53 -493 -115 -107 -212 -148 -348
-148 -160 0 -298 83 -361 218 -44 94 -64 213 -50 298 28 168 150 308 306 349
17 4 80 7 140 6 101 -2 114 -5 164 -32z m5693 -283 l526 -2 -10 -37 c-6 -21
-8 -68 -5 -105 l6 -68 -664 0 -664 0 -3 105 -3 104 60 3 c33 2 98 3 145 2 47
-1 322 -2 612 -2z m-5032 -12 c0 -5 -8 -10 -17 -10 -15 0 -16 2 -3 10 19 12
20 12 20 0z m1217 -91 l2 -101 -209 3 c-161 3 -206 7 -198 16 5 6 17 9 25 6 9
-4 14 -2 10 3 -3 6 3 11 14 11 12 1 17 -2 12 -10 -3 -7 3 -3 15 7 12 11 22 26
21 35 0 12 -3 11 -9 -4 -5 -11 -9 -17 -9 -13 -1 3 -4 15 -8 25 -3 10 -3 15 2
11 4 -4 15 -2 23 5 11 8 14 8 9 0 -4 -6 -3 -14 2 -17 14 -9 21 20 8 35 -8 8
-5 8 7 -1 18 -13 19 -13 14 2 -5 11 -2 15 10 14 9 -2 18 -11 19 -22 3 -17 2
-17 -5 -2 -7 16 -8 16 -21 -3 -11 -19 -11 -21 2 -16 8 3 19 1 25 -5 7 -7 10 1
8 24 -1 29 2 34 17 30 14 -3 15 -7 6 -19 -9 -11 -9 -17 0 -26 10 -9 11 -9 6 4
-8 21 29 52 65 54 16 1 32 4 36 7 3 4 17 4 30 2 13 -2 24 0 24 6 0 5 -43 10
-107 10 -60 0 -121 2 -138 4 -16 2 -229 4 -473 5 -293 1 -441 4 -437 11 4 6
216 10 603 10 l597 0 2 -101z m-1310 8 c1 -54 -1 -75 -7 -62 -11 25 -13 145
-2 145 4 0 8 -37 9 -83z m1133 39 c0 -3 -4 -8 -10 -11 -5 -3 -10 -1 -10 4 0 6
5 11 10 11 6 0 10 -2 10 -4z m-157 -96 c10 -12 9 -12 -4 -2 -9 6 -18 9 -21 6
-3 -3 -9 -1 -12 4 -9 15 22 8 37 -8z m-893 -53 l65 -3 -77 -2 c-42 -1 -79 2
-82 7 -8 13 6 22 18 11 7 -5 41 -11 76 -13z m733 6 c-24 -2 -62 -2 -85 0 -24
2 -5 4 42 4 47 0 66 -2 43 -4z m-630 -10 c-7 -2 -19 -2 -25 0 -7 3 -2 5 12 5
14 0 19 -2 13 -5z m5359 -554 c80 -17 141 -53 212 -122 118 -116 168 -253 152
-415 -21 -210 -190 -395 -393 -431 -116 -21 -259 27 -371 125 -61 54 -114 152
-132 247 -7 37 -17 71 -24 76 -8 7 -35 7 -76 1 -36 -5 -183 -10 -327 -10
l-263 0 0 106 0 106 344 -3 c190 -2 346 -2 349 1 2 3 20 34 40 70 61 109 106
160 176 199 105 57 205 73 313 50z m-5197 -43 c82 -40 180 -141 230 -236 36
-69 39 -83 43 -170 3 -77 0 -110 -17 -167 -39 -130 -134 -238 -275 -315 -58
-31 -66 -33 -166 -32 -121 1 -187 21 -264 79 -166 127 -232 421 -140 623 35
78 80 130 154 177 108 69 130 75 260 73 104 -3 121 -6 175 -32z m6290 -43 c-2
-10 -13 -67 -25 -128 -47 -247 -109 -447 -224 -725 -85 -204 -142 -316 -248
-483 -243 -385 -512 -698 -843 -982 -264 -226 -709 -491 -1071 -638 -111 -45
-446 -155 -539 -176 -95 -22 -276 -48 -281 -40 -2 4 0 27 6 51 5 24 10 85 10
136 l0 92 43 0 c105 0 413 77 627 157 107 40 382 175 516 254 317 185 744 542
943 785 36 45 99 121 140 169 90 106 204 268 279 395 56 94 207 409 243 505
70 189 149 511 149 610 0 24 1 24 98 28 53 1 116 4 139 5 34 2 41 -1 38 -15z
m-7469 -20 l41 4 17 -95 c10 -52 27 -120 37 -151 11 -31 36 -114 55 -185 20
-71 47 -153 60 -182 13 -30 21 -54 19 -54 -9 0 -53 107 -79 192 -58 191 -95
327 -107 389 l-12 66 -42 -4 c-22 -3 -72 0 -110 6 -38 5 -71 9 -72 7 -13 -13
78 -329 176 -616 28 -79 49 -146 47 -148 -5 -4 -57 133 -117 308 -53 155 -90
287 -109 389 -6 34 -13 68 -16 75 -4 9 15 10 83 3 48 -5 106 -7 129 -4z m1901
-228 l203 0 1 -82 c1 -46 2 -89 3 -95 1 -16 -107 -22 -211 -13 -68 6 -71 7
-55 24 9 10 20 16 24 14 4 -2 5 3 2 11 -3 9 -11 13 -17 9 -22 -13 -45 -10 -39
5 4 11 1 13 -9 7 -11 -6 -12 -5 -1 6 18 20 15 33 -5 18 -16 -13 -17 -12 -4 3
15 20 35 14 27 -7 -3 -8 1 -19 9 -25 11 -9 13 -7 9 14 -2 13 0 28 6 31 5 3 10
11 10 18 0 6 -6 3 -13 -8 -13 -17 -14 -17 -19 2 -7 25 30 29 49 5 12 -15 12
-15 6 3 -6 18 -5 19 12 5 11 -9 16 -10 11 -2 -7 12 -5 13 56 16 15 1 30 5 34
9 4 4 13 2 21 -4 10 -9 13 -8 13 2 0 11 2 11 9 1 6 -10 10 -10 20 1 10 12 -26
14 -253 14 -177 0 -263 -4 -259 -10 4 -6 0 -8 -9 -4 -18 6 -43 -18 -51 -48 -2
-11 -5 6 -6 38 l-1 58 113 -8 c61 -4 203 -8 314 -8z m-307 -29 c0 -2 -9 -6
-20 -9 -11 -3 -18 -1 -14 4 5 9 34 13 34 5z m-2093 -68 c-3 -8 -6 -5 -6 6 -1
11 2 17 5 13 3 -3 4 -12 1 -19z m762 -403 c0 -5 -6 1 -14 15 -8 14 -14 30 -14
35 0 6 6 -1 14 -15 8 -14 14 -29 14 -35z m-629 0 c0 -5 -5 -3 -10 5 -5 8 -10
20 -10 25 0 6 5 3 10 -5 5 -8 10 -19 10 -25z m91 -200 c104 -236 168 -358 315
-593 183 -294 389 -543 713 -860 146 -143 489 -413 626 -494 215 -126 290
-167 408 -220 72 -33 184 -84 247 -113 288 -133 648 -225 1110 -282 209 -26
642 -23 915 6 282 30 407 53 647 121 79 22 177 50 218 61 231 63 743 310 1005
485 179 119 193 130 355 263 296 244 571 535 761 806 34 50 104 149 154 220
98 141 168 252 204 328 13 26 26 46 28 43 7 -7 -126 -256 -136 -256 -5 0 -12
-11 -15 -24 -3 -14 -12 -31 -20 -39 -22 -21 -56 -80 -56 -96 0 -7 -21 -41 -48
-75 -26 -33 -68 -95 -92 -136 -59 -98 -119 -177 -234 -308 -105 -119 -351
-354 -498 -477 -115 -96 -371 -281 -482 -349 -117 -70 -483 -262 -595 -312
-276 -121 -726 -239 -1126 -295 -142 -20 -203 -23 -545 -23 -423 -1 -447 1
-780 69 -294 60 -420 96 -654 189 -464 183 -796 369 -1107 618 -371 297 -843
828 -1030 1161 -28 50 -78 135 -110 188 -74 123 -270 544 -269 577 1 13 32
-50 91 -183z m721 -147 c52 -96 200 -314 287 -426 177 -226 500 -547 726 -722
158 -123 198 -151 329 -229 312 -188 779 -371 1010 -396 28 -3 70 -8 92 -11
l41 -5 0 -92 c0 -51 6 -114 12 -141 6 -27 10 -50 8 -52 -16 -16 -406 88 -687
183 -323 109 -757 358 -1049 601 -315 262 -639 625 -842 942 -71 111 -71 110
-65 110 3 0 31 -39 62 -87 175 -271 493 -641 684 -796 41 -34 67 -52 57 -41
-21 25 -10 40 13 19 15 -13 16 -11 14 23 -2 38 12 66 27 56 5 -3 8 3 6 13 -2
18 -16 30 -18 16 0 -5 -8 -17 -18 -28 -9 -11 -16 -29 -16 -41 1 -12 -4 -21
-11 -21 -8 0 -12 3 -9 5 3 3 -1 12 -8 21 -11 14 -10 15 7 1 18 -14 19 -13 14
2 -4 9 1 23 13 34 15 13 16 20 7 31 -6 8 -7 13 -2 12 5 -1 11 0 14 1 19 7 39
7 34 -1 -3 -5 1 -9 8 -9 8 0 9 -3 3 -8 -15 -11 -12 -36 7 -50 10 -7 15 -20 11
-30 -3 -9 5 -2 19 15 14 18 28 30 31 26 4 -3 0 -14 -9 -24 -12 -14 -13 -18 -2
-25 7 -4 10 -3 5 1 -4 5 0 17 9 27 13 14 20 15 31 7 11 -10 11 -15 1 -28 -12
-14 -11 -15 5 -2 17 13 16 16 -10 43 l-28 29 -17 -21 c-9 -11 -19 -16 -22 -11
-4 5 1 14 10 19 10 6 13 12 6 16 -6 3 -18 -4 -26 -16 -13 -18 -16 -19 -16 -5
0 9 5 17 11 17 5 0 8 4 4 9 -3 5 -1 12 5 16 6 4 7 12 4 18 -4 7 4 3 17 -9 13
-11 53 -45 89 -75 36 -30 68 -58 72 -64 4 -5 8 -6 8 -2 0 4 6 2 14 -5 8 -7 11
-17 8 -23 -3 -5 -1 -7 3 -2 5 4 20 0 34 -9 25 -15 1 7 -98 90 -98 81 -378 356
-460 450 -231 265 -389 493 -530 761 -61 116 -111 215 -111 221 0 5 29 -45 64
-111 35 -66 88 -164 118 -217z m-317 107 c26 -55 42 -95 36 -90 -5 6 -31 55
-56 110 -26 55 -42 96 -36 90 5 -5 31 -55 56 -110z m7372 -36 c-13 -30 -32
-73 -42 -96 -10 -24 -20 -41 -23 -39 -2 2 16 47 39 100 24 53 44 94 46 92 2
-2 -7 -28 -20 -57z m-7293 -126 c9 -18 14 -33 12 -33 -6 0 -36 55 -36 66 0 11
5 3 24 -33z m3506 -405 c0 -222 -3 -420 -6 -440 l-7 -38 -99 0 -99 0 2 433 c0
237 3 435 6 440 2 4 49 7 104 7 l99 0 0 -402z m1555 337 c101 -27 163 -61 229
-127 108 -109 151 -240 129 -393 -45 -311 -368 -492 -644 -361 -114 53 -191
143 -234 269 -57 172 -19 374 93 486 51 51 189 126 247 134 66 9 124 6 180 -8z
m-5010 -25 c9 -16 13 -30 11 -30 -3 0 -12 14 -21 30 -9 17 -13 30 -11 30 3 0
12 -13 21 -30z m1981 -1 c114 -35 224 -137 274 -253 112 -262 -43 -567 -325
-642 -233 -63 -497 111 -550 363 -8 38 -14 79 -14 93 1 30 2 26 24 -70 19 -83
52 -156 97 -212 27 -35 59 -54 42 -25 -5 7 -1 7 12 -3 29 -22 30 -24 10 -16
-16 5 -17 4 -6 -9 9 -11 16 -13 24 -5 16 16 30 12 16 -5 -7 -8 -10 -15 -6 -15
3 0 8 0 11 0 3 0 5 3 6 8 0 4 8 16 17 27 16 19 16 19 -3 5 -19 -14 -19 -14 -5
4 14 17 15 17 32 -4 10 -12 19 -17 19 -11 4 32 6 36 18 33 7 -1 10 2 6 8 -3 6
-10 8 -15 5 -5 -3 -11 -1 -15 4 -6 11 28 7 47 -5 8 -5 9 -2 5 10 -4 9 -3 14 2
11 5 -3 12 -1 16 4 3 5 15 8 26 6 30 -6 20 8 -37 53 -69 55 -106 128 -105 211
0 33 5 70 11 81 6 12 9 28 6 36 -4 10 -2 12 6 8 8 -5 9 -2 5 10 -6 14 -3 17 9
12 11 -4 15 -2 11 7 -3 8 3 14 15 14 11 1 28 9 37 17 16 14 67 38 85 40 14 1
18 23 6 31 -8 5 -8 10 0 20 8 10 8 15 -1 21 -7 4 -9 3 -5 -4 3 -6 2 -13 -4
-17 -10 -6 -15 8 -10 30 1 6 -4 4 -11 -2 -9 -9 -16 -9 -25 -2 -14 12 -7 42 7
33 5 -3 6 -10 3 -16 -4 -7 -2 -8 5 -4 9 6 9 11 0 22 -7 9 -16 11 -21 6 -13
-13 -18 -52 -6 -49 6 1 12 -6 13 -16 2 -11 1 -16 -2 -13 -4 3 -13 0 -22 -7
-14 -10 -14 -10 -4 4 11 13 9 19 -7 34 -19 17 -25 14 -20 -10 1 -5 -2 -7 -6
-3 -4 4 -13 3 -20 -3 -9 -7 -14 -6 -20 3 -4 7 -4 10 1 6 4 -4 15 -3 22 4 12
10 11 15 -9 31 l-23 19 28 -16 c29 -17 31 -17 21 8 -3 9 -11 13 -18 9 -6 -3 0
6 13 20 14 15 27 24 30 21 3 -3 -1 -9 -8 -13 -10 -6 -10 -10 -2 -16 7 -4 9
-16 5 -28 -8 -25 -5 -23 21 18 14 23 15 27 3 17 -14 -11 -16 -9 -14 13 1 21 5
26 23 22 12 -2 27 -1 33 3 6 4 -4 7 -22 8 -52 1 -156 -55 -214 -114 -72 -75
-105 -126 -131 -203 -12 -36 -23 -56 -23 -44 0 63 95 229 170 297 47 42 146
94 204 106 55 12 156 2 232 -21z m3907 -26 c91 -58 89 -185 -4 -252 -55 -40
-100 -41 -161 -2 -57 36 -78 74 -78 141 0 45 4 55 38 91 59 64 130 71 205 22z
m-4831 15 c37 -31 48 -62 48 -139 0 -69 -3 -81 -26 -109 -15 -17 -39 -37 -55
-45 -46 -24 -48 -17 -3 10 62 37 94 138 63 196 -17 32 -40 6 -35 -41 3 -30 0
-37 -13 -36 -10 1 -15 -6 -14 -19 1 -20 1 -20 -13 -1 -14 20 -14 20 -15 0 -1
-16 -2 -17 -6 -1 -2 9 -9 17 -14 17 -6 0 -7 -4 -4 -10 11 -18 -1 -11 -21 12
-13 14 -14 19 -4 14 8 -4 6 0 -5 9 -11 9 -18 18 -15 21 3 3 -5 11 -17 17 -12
7 -22 15 -22 20 -1 4 -1 13 -1 20 0 6 -12 -1 -26 -17 -23 -26 -26 -36 -22 -83
4 -46 10 -60 43 -93 22 -22 34 -40 29 -40 -13 0 -58 48 -71 75 -34 69 -15 145
51 203 32 28 44 32 94 32 32 0 65 -6 74 -12z m-1022 -48 c6 -11 8 -20 6 -20
-3 0 -10 9 -16 20 -6 11 -8 20 -6 20 3 0 10 -9 16 -20z m1036 -57 c-10 -10
-19 5 -10 18 6 11 8 11 12 0 2 -7 1 -15 -2 -18z m720 -80 c-3 -4 -6 -1 -6 5 0
14 -22 12 -32 -3 -5 -6 -8 -6 -8 2 0 6 4 14 10 18 5 3 6 13 3 23 -3 9 4 4 17
-11 12 -15 20 -31 16 -34z m1036 -48 c54 -36 78 -79 78 -142 0 -44 -5 -58 -30
-87 -63 -71 -141 -85 -208 -36 -44 32 -92 104 -92 139 0 46 52 112 115 146 38
20 86 13 137 -20z m1218 20 c93 -48 116 -179 42 -247 -90 -84 -191 -74 -270
27 -44 55 -16 150 60 205 47 34 118 41 168 15z m-3077 -92 c-7 -2 -19 -2 -25
0 -7 3 -2 5 12 5 14 0 19 -2 13 -5z m637 -417 c0 -2 -8 -10 -17 -17 -16 -13
-17 -12 -4 4 13 16 21 21 21 13z m47 -11 c0 -8 -4 -12 -9 -9 -4 3 -8 9 -8 15
0 5 4 9 8 9 5 0 9 -7 9 -15z m-757 -101 c0 -8 -19 -13 -24 -6 -3 5 1 9 9 9 8
0 15 -2 15 -3z m-36 -43 c3 -4 -3 -16 -13 -25 -14 -13 -18 -14 -18 -2 0 8 5
14 11 13 6 -1 10 4 9 11 -3 14 3 16 11 3z m2630 -212 c85 -31 166 -97 219
-176 64 -96 70 -115 70 -228 1 -91 -2 -107 -32 -177 -39 -93 -74 -139 -149
-195 -159 -118 -358 -121 -510 -5 -110 84 -182 276 -162 435 19 157 143 306
293 352 68 22 207 19 271 -6z m-2229 -1049 c3 -6 -1 -7 -9 -4 -18 7 -21 14 -7
14 6 0 13 -4 16 -10z"/>
<path d="M7620 11377 c-51 -16 -126 -93 -139 -144 -23 -86 17 -173 98 -215 76
-40 141 -39 204 3 59 39 84 73 99 137 9 43 9 58 -6 97 -42 110 -143 158 -256
122z"/>
<path d="M5731 11024 c0 -11 3 -14 6 -6 3 7 2 16 -1 19 -3 4 -6 -2 -5 -13z"/>
<path d="M5709 10963 c-13 -16 -12 -17 4 -4 16 13 21 21 13 21 -2 0 -10 -8
-17 -17z"/>
<path d="M5648 10772 c-74 -48 -86 -63 -23 -28 43 25 98 67 85 65 -3 0 -31
-17 -62 -37z"/>
<path d="M5818 10388 c-54 -45 -89 -148 -87 -257 1 -42 4 -64 6 -48 3 18 9 25
16 20 8 -4 7 -1 -1 9 -10 13 -10 18 -1 24 8 5 10 3 4 -7 -5 -8 -4 -11 1 -6 5
5 9 14 10 20 0 7 2 21 3 32 1 17 3 18 12 5 8 -11 9 -8 5 15 -4 17 -3 25 1 19
4 -6 15 -13 25 -17 13 -5 15 0 12 26 -4 25 -2 29 6 17 9 -12 10 -10 5 9 -4 14
-3 21 2 18 5 -4 10 0 10 8 0 8 -4 12 -9 9 -12 -8 -10 3 7 37 12 22 12 29 3 27
-9 -2 -12 6 -10 25 3 31 2 32 -20 15z m-8 -158 c6 -11 8 -20 6 -20 -3 0 -10 9
-16 20 -6 11 -8 20 -6 20 3 0 10 -9 16 -20z"/>
<path d="M6084 10334 c-35 -17 -89 -79 -104 -119 -13 -34 -13 -120 1 -168 14
-52 71 -112 125 -133 85 -33 194 5 254 88 27 37 30 48 30 120 0 49 -5 89 -14
107 -19 36 -80 90 -122 107 -44 18 -131 17 -170 -2z"/>
<path d="M6010 10315 c-7 -8 -22 -15 -34 -15 -17 0 -18 -2 -6 -10 11 -7 11
-10 2 -10 -7 0 -11 -4 -7 -9 3 -5 1 -12 -5 -16 -9 -6 -15 8 -11 29 1 5 -5 4
-13 -4 -17 -13 -22 -25 -7 -16 10 7 23 -19 13 -28 -8 -8 -10 -66 -2 -66 3 0
12 17 19 38 8 20 19 44 25 52 34 42 58 93 26 55z"/>
<path d="M5860 10276 c0 -2 8 -10 18 -17 15 -13 16 -12 3 4 -13 16 -21 21 -21
13z"/>
<path d="M5906 10238 c3 -5 10 -6 15 -3 13 9 11 12 -6 12 -8 0 -12 -4 -9 -9z"/>
<path d="M5931 10144 c0 -11 3 -14 6 -6 3 7 2 16 -1 19 -3 4 -6 -2 -5 -13z"/>
<path d="M5970 9980 c0 -5 6 -10 13 -11 6 0 3 -4 -8 -9 -19 -8 -19 -9 3 -9 13
-1 20 -5 17 -11 -3 -5 1 -10 9 -10 20 0 20 10 0 38 -16 23 -34 29 -34 12z"/>
<path d="M9165 10327 c-16 -8 -47 -31 -68 -53 -103 -106 -85 -265 39 -344 89
-56 174 -48 251 23 89 82 108 178 54 272 -43 75 -97 109 -180 112 -40 2 -78
-2 -96 -10z"/>
<path d="M5254 10021 c-18 -11 -38 -36 -47 -59 -22 -54 -5 -121 36 -140 35
-17 90 -25 82 -12 -3 6 0 7 8 4 8 -3 18 5 25 20 10 22 9 24 -9 21 -11 -2 -17
0 -14 5 3 5 16 7 29 4 19 -3 27 2 38 26 7 16 16 30 20 30 15 0 -15 62 -44 90
-35 36 -78 39 -124 11z m93 -187 c-3 -3 -12 -4 -19 -1 -8 3 -5 6 6 6 11 1 17
-2 13 -5z"/>
<path d="M10237 9151 c-128 -82 -143 -240 -33 -359 52 -56 83 -72 146 -72 81
0 166 55 207 134 39 74 11 209 -54 267 -50 43 -92 59 -161 59 -47 0 -67 -6
-105 -29z"/>
<path d="M6538 9128 c3 -84 7 -155 11 -158 3 -3 6 -30 7 -60 0 -39 4 -54 13
-52 8 1 10 -2 4 -10 -4 -7 -9 -24 -10 -38 l-2 -25 10 25 c6 14 9 25 8 25 -1 0
3 10 10 23 7 13 17 20 23 16 8 -5 9 -1 4 12 -5 14 -4 16 5 7 12 -12 3 -37 -10
-29 -4 3 -8 -1 -8 -9 0 -10 4 -12 12 -5 7 5 14 8 16 5 10 -9 8 40 -2 51 -6 8
-5 14 6 18 9 3 14 10 11 15 -3 4 4 17 17 27 22 19 22 19 6 -1 -9 -11 -14 -26
-12 -32 3 -7 0 -13 -6 -13 -6 0 -11 -4 -11 -10 0 -5 3 -9 8 -9 19 3 33 -2 27
-10 -3 -5 -1 -13 5 -16 6 -4 9 -1 8 7 -2 7 2 12 7 11 6 -1 11 14 12 34 1 19 6
40 11 46 5 7 8 31 7 55 -1 51 15 64 66 53 19 -4 50 -7 69 -6 19 1 106 3 193 4
86 0 157 5 157 9 0 4 -15 7 -32 7 -18 -1 -37 1 -43 4 -16 9 -35 10 -30 1 3 -4
-53 -8 -123 -8 -70 0 -121 2 -114 5 6 2 12 17 11 31 l-1 27 -8 -25 c-7 -23 -8
-23 -9 -3 -1 12 4 25 9 28 6 4 8 11 5 16 -4 5 -1 9 5 9 7 0 9 -7 6 -17 -4 -10
-4 -14 0 -10 4 4 13 2 21 -5 8 -6 13 -7 12 -2 -4 21 2 24 24 14 21 -11 21 -10
3 4 -14 12 -23 13 -33 5 -9 -8 -13 -8 -13 0 0 6 5 12 10 12 20 3 25 4 38 12 7
5 12 5 11 0 -3 -20 2 -27 10 -14 14 22 51 24 52 3 0 -14 2 -14 8 3 l8 20 5
-20 c5 -18 6 -18 7 3 0 12 6 22 12 22 5 0 7 -6 3 -12 -5 -9 -2 -9 9 1 9 7 17
10 17 6 0 -4 6 -3 13 3 20 17 23 17 40 3 14 -11 17 -11 17 0 0 12 2 12 9 1 7
-11 9 -11 14 1 5 14 34 16 55 4 8 -5 10 -3 6 6 -4 11 6 14 46 13 28 -1 53 1
56 5 3 5 11 6 18 3 8 -3 17 0 22 7 4 8 3 10 -4 5 -7 -4 -17 -4 -24 0 -6 4
-181 9 -387 10 -207 2 -390 6 -407 9 l-31 5 5 -152z m104 -125 c-6 -2 -9 -10
-6 -15 4 -7 2 -8 -5 -4 -13 9 -5 26 12 25 9 0 8 -2 -1 -6z m56 -55 c-11 -51
-14 -55 -21 -28 -3 12 -1 18 5 14 6 -4 8 -1 6 7 -5 13 8 49 16 49 2 0 0 -19
-6 -42z m-93 3 c3 -5 2 -12 -3 -15 -5 -3 -9 1 -9 9 0 17 3 19 12 6z m-12 -43
c-4 -7 -8 -16 -8 -20 0 -14 -15 -21 -15 -7 0 8 5 20 12 27 16 16 21 15 11 0z"/>
<path d="M7113 9193 c0 -9 4 -10 14 -2 7 6 13 12 13 14 0 1 -6 2 -13 2 -8 0
-14 -6 -14 -14z"/>
<path d="M6981 9174 c0 -11 3 -14 6 -6 3 7 2 16 -1 19 -3 4 -6 -2 -5 -13z"/>
<path d="M7146 9112 c-3 -5 1 -9 9 -9 8 0 12 4 9 9 -3 4 -7 8 -9 8 -2 0 -6 -4
-9 -8z"/>
<path d="M7770 9070 c-47 -5 -294 -10 -550 -11 l-465 -4 2 -1313 c1 -722 5
-1317 8 -1323 4 -5 16 -7 27 -4 26 9 1812 9 1869 0 l44 -7 0 744 c0 409 2 831
3 938 l4 195 -334 3 c-183 2 -337 7 -342 12 -4 4 -11 181 -15 392 l-6 383 -80
1 c-44 1 -118 -2 -165 -6z m648 -1325 c1 -44 -1 -86 -6 -93 -7 -10 -152 -14
-680 -19 -574 -5 -672 -4 -676 8 -3 8 -6 51 -9 97 l-4 83 614 -2 c338 -1 617
2 621 5 3 4 36 6 72 4 l65 -3 3 -80z m-3 -397 c3 -35 8 -75 11 -89 l5 -26
-218 -6 c-120 -4 -431 -7 -690 -7 l-473 0 0 83 0 82 468 4 c257 1 523 6 592
11 69 4 164 8 212 8 l86 2 7 -62z m15 -465 l0 -108 -690 0 -690 0 0 95 0 95
603 2 c331 2 636 7 677 12 41 4 81 9 88 10 9 1 12 -26 12 -106z"/>
<path d="M8252 8699 l3 -201 174 2 c96 0 178 3 184 7 5 3 -7 22 -25 42 -19 20
-54 61 -78 91 -54 67 -241 260 -252 260 -5 0 -7 -90 -6 -201z"/>
<path d="M6546 8129 c-4 -22 -2 -35 6 -41 10 -6 10 -8 0 -8 -7 0 -10 -5 -7
-11 4 -5 6 -48 6 -94 -1 -75 1 -84 16 -78 9 4 13 8 7 10 -5 2 -8 47 -7 103 1
75 -1 98 -10 93 -7 -4 -7 0 1 10 9 11 11 21 4 33 -7 13 -10 10 -16 -17z"/>
<path d="M6555 7880 c-3 -5 0 -10 7 -10 9 0 9 -3 -2 -10 -11 -7 -15 -29 -15
-87 l0 -77 28 -1 c15 -1 33 5 40 13 9 13 9 14 0 8 -7 -4 -13 -3 -13 2 0 6 7
12 15 16 8 3 15 0 15 -6 0 -6 3 -9 6 -5 3 3 1 14 -5 24 -6 10 -11 12 -11 6 0
-7 -5 -13 -11 -13 -6 0 -7 5 -2 13 11 18 13 40 6 57 -3 8 -7 18 -7 22 -1 3 -5
10 -10 15 -5 5 -6 2 -1 -6 5 -9 4 -12 -3 -7 -7 4 -12 18 -12 32 0 24 -14 32
-25 14z m44 -74 c8 -10 9 -16 1 -21 -6 -4 -9 -1 -8 7 2 7 -3 12 -10 10 -8 -1
-11 2 -7 8 8 13 10 13 24 -4z m-19 -32 c0 -8 -19 -13 -24 -6 -3 5 1 9 9 9 8 0
15 -2 15 -3z m13 -19 c-3 -9 -8 -14 -10 -11 -3 3 -2 9 2 15 9 16 15 13 8 -4z
m7 -50 c0 -1 -7 -2 -15 -2 -8 0 -11 5 -8 11 4 6 -1 5 -10 -3 -18 -14 -22 -5
-11 23 5 14 9 13 25 -5 11 -12 19 -23 19 -24z"/>
<path d="M6626 7781 c-3 -5 1 -11 9 -14 9 -4 12 -1 8 9 -6 16 -10 17 -17 5z"/>
<path d="M6660 7756 c0 -2 8 -10 18 -17 15 -13 16 -12 3 4 -13 16 -21 21 -21
13z"/>
<path d="M6552 6360 c-3 -53 0 -70 8 -65 7 4 10 16 7 26 -3 11 -1 17 4 13 5
-3 9 -1 9 5 0 5 -6 12 -12 14 -10 4 -10 6 0 6 6 1 12 6 12 12 0 5 -6 7 -12 3
-10 -6 -10 -5 -1 7 10 12 10 19 0 33 -11 14 -13 6 -15 -54z"/>
<path d="M6572 6288 c-7 -7 -11 -21 -11 -32 1 -21 1 -21 6 -1 3 11 10 26 15
33 13 15 6 16 -10 0z"/>
<path d="M6110 8980 c-25 -4 -36 -8 -25 -10 11 -1 25 -1 30 0 6 1 7 -2 2 -6
-4 -4 -17 -9 -29 -11 -12 -2 -27 -8 -33 -13 -7 -5 -16 -6 -21 -2 -5 4 -6 3 -2
-2 4 -5 34 -10 67 -13 55 -3 60 -2 58 17 -1 11 -6 20 -12 20 -5 0 -1 7 9 15
11 8 16 14 10 13 -5 0 -29 -4 -54 -8z"/>
<path d="M5587 8974 c-4 -4 -7 -38 -7 -76 l0 -68 33 1 c17 1 43 5 57 9 24 8
24 8 2 9 l-23 1 20 22 c11 11 19 24 16 27 -2 4 8 8 23 9 14 1 31 7 36 12 6 6
21 10 34 10 16 0 21 4 16 13 -5 8 -2 7 9 -2 10 -8 20 -11 24 -7 3 3 1 6 -6 6
-7 0 -9 5 -5 11 4 7 10 7 16 1 6 -6 17 -8 26 -5 11 5 13 3 7 -7 -5 -9 -4 -11
3 -6 7 4 12 13 12 19 0 9 -28 13 -97 15 -54 1 -118 4 -143 7 -25 4 -49 3 -53
-1z"/>
<path d="M5890 8960 c0 -14 15 -19 29 -11 9 6 7 10 -8 14 -12 3 -21 1 -21 -3z"/>
<path d="M11204 7994 c-49 -18 -119 -75 -139 -115 -9 -16 -15 -55 -15 -92 0
-52 5 -71 29 -108 57 -88 106 -119 192 -119 55 0 129 32 166 72 31 33 63 107
63 147 0 88 -52 169 -134 207 -58 27 -102 29 -162 8z"/>
<path d="M4023 8179 c-52 -15 -148 -75 -182 -114 -135 -154 -135 -415 1 -587
38 -48 76 -71 173 -102 90 -29 132 -32 226 -12 86 19 155 54 218 112 51 47 62
68 39 77 -8 3 -6 6 5 6 9 1 17 6 17 11 0 6 -3 9 -7 8 -5 -1 -21 4 -37 11 -23
9 -27 16 -24 36 3 15 0 26 -9 29 -9 4 -11 2 -7 -7 6 -8 3 -8 -8 1 -18 15 -15
35 11 67 16 20 16 20 -6 1 -17 -14 -23 -15 -23 -6 0 8 -14 -6 -32 -31 -77
-107 -120 -135 -226 -145 -61 -6 -75 -4 -104 14 -74 47 -129 145 -127 229 l2
58 7 -55 c9 -71 30 -111 92 -173 l49 -49 84 4 c100 5 149 32 196 105 46 73 39
174 -18 251 -33 44 -66 64 -132 79 l-56 13 52 -4 c69 -6 102 -25 158 -90 35
-41 49 -67 55 -103 l8 -48 1 46 c1 35 6 49 19 54 14 5 15 4 5 -6 -7 -7 -13
-17 -13 -23 0 -5 6 -1 14 10 11 15 12 22 3 33 -9 12 -9 13 1 7 7 -4 12 -2 12
6 0 10 3 9 9 -2 6 -8 7 -19 3 -25 -3 -5 2 -4 10 3 9 8 19 23 21 35 4 21 4 21
6 -1 0 -13 6 -20 11 -17 6 3 13 -1 16 -9 11 -29 24 -17 17 17 -32 172 -209
298 -418 296 -44 0 -95 -5 -112 -10z"/>
<path d="M4496 7863 c-6 -14 -5 -15 5 -6 7 7 10 15 7 18 -3 3 -9 -2 -12 -12z"/>
<path d="M4553 7759 c-2 -23 3 -25 10 -4 4 8 3 16 -1 19 -4 3 -9 -4 -9 -15z"/>
<path d="M4415 7749 c-4 -6 -5 -12 -2 -15 2 -3 7 2 10 11 7 17 1 20 -8 4z"/>
<path d="M10276 6870 c-55 -28 -82 -55 -111 -114 -46 -93 -25 -201 60 -294 53
-60 117 -69 204 -31 83 36 151 118 166 201 5 28 1 50 -18 91 -62 135 -195 200
-301 147z"/>
<path d="M4966 7089 c-60 -14 -177 -80 -219 -123 -73 -72 -125 -235 -112 -349
7 -68 38 -175 68 -232 73 -144 200 -211 381 -203 76 4 101 9 149 34 43 22 56
33 53 47 -2 10 5 23 16 31 13 9 17 19 12 28 -6 10 -3 9 10 -1 16 -14 16 -16
-11 -29 -17 -10 -23 -17 -15 -20 18 -6 54 29 47 46 -5 12 -3 13 10 2 13 -11
14 -10 9 5 -6 14 -4 16 7 10 8 -5 5 2 -6 16 -15 18 -16 20 -2 10 14 -11 17
-11 17 1 0 8 -6 20 -12 28 -11 12 -10 12 3 2 9 -6 19 -9 23 -5 4 4 4 -1 1 -12
-4 -13 -1 -11 8 5 9 14 18 24 21 23 15 -7 16 -1 5 20 -12 21 -11 21 6 7 10 -8
16 -10 12 -4 -4 7 0 17 8 24 9 8 13 21 10 34 -5 17 -4 18 4 6 6 -8 11 -10 12
-5 3 20 5 30 11 45 23 55 30 231 9 238 -6 2 -9 8 -6 12 10 16 -46 113 -97 166
-92 97 -179 137 -323 148 -38 2 -87 0 -109 -5z m48 -188 c-75 -13 -123 -63
-158 -165 -21 -61 -20 -95 3 -156 42 -111 107 -160 211 -160 99 0 168 48 213
149 14 33 18 57 13 100 -3 37 -2 48 3 31 25 -71 6 -150 -50 -214 -58 -65 -109
-90 -185 -90 -76 0 -135 32 -180 96 -40 55 -56 106 -55 173 0 63 19 111 63
167 41 52 84 78 128 77 l35 -2 -41 -6z m126 -7 c16 -10 18 -13 5 -8 -11 4 -36
10 -55 14 -34 8 -34 8 -5 8 17 1 41 -6 55 -14z m96 -66 l29 -33 -32 29 c-31
28 -38 36 -30 36 2 0 16 -15 33 -32z m42 -63 c-3 -3 -9 2 -12 12 -6 14 -5 15
5 6 7 -7 10 -15 7 -18z m172 -301 c0 -8 -19 -13 -24 -6 -3 5 1 9 9 9 8 0 15
-2 15 -3z m-43 -21 c-4 -3 1 -16 10 -27 15 -17 15 -18 1 -8 -13 10 -17 10 -21
0 -3 -7 -4 -2 -2 12 4 32 4 30 12 30 3 0 3 -3 0 -7z"/>
<path d="M6075 6731 c-3 -5 -1 -12 5 -16 6 -4 8 -10 5 -15 -3 -5 0 -12 7 -16
7 -4 10 -4 6 1 -4 4 -3 14 4 22 9 11 8 13 -3 11 -8 -2 -13 3 -11 10 2 14 -4
16 -13 3z"/>
<path d="M5294 4918 c-4 -7 -4 -10 1 -6 4 4 15 2 24 -5 14 -11 14 -10 2 6 -16
20 -18 21 -27 5z"/>
<path d="M5229 4879 c0 -2 -2 -13 -4 -25 -3 -12 2 -30 11 -40 14 -18 15 -18 5
3 -16 32 -13 38 7 20 16 -15 19 -15 19 -2 0 13 -36 55 -38 44z m22 -26 c13
-16 12 -17 -3 -4 -10 7 -18 15 -18 17 0 8 8 3 21 -13z"/>
<path d="M5400 4836 c0 -2 8 -10 18 -17 15 -13 16 -12 3 4 -13 16 -21 21 -21
13z"/>
<path d="M5610 4707 c0 -3 18 -20 40 -37 22 -17 40 -29 40 -27 0 3 -18 20 -40
37 -22 17 -40 29 -40 27z"/>
<path d="M9160 5574 c-104 -45 -158 -177 -116 -278 18 -43 81 -113 120 -133
42 -22 125 -19 174 6 70 36 132 133 132 207 0 42 -38 119 -77 156 -59 56 -159
74 -233 42z"/>
<path d="M6147 5783 c-3 -5 6 -8 19 -8 13 0 24 3 24 8 0 4 -9 7 -19 7 -11 0
-22 -3 -24 -7z"/>
<path d="M6200 5782 c0 -5 7 -9 15 -9 8 0 12 4 9 9 -3 4 -9 8 -15 8 -5 0 -9
-4 -9 -8z"/>
<path d="M6248 5773 c7 -3 16 -2 19 1 4 3 -2 6 -13 5 -11 0 -14 -3 -6 -6z"/>
<path d="M6016 5717 c3 -10 9 -15 12 -12 3 3 0 11 -7 18 -10 9 -11 8 -5 -6z"/>
<path d="M6101 5566 c-86 -28 -145 -112 -145 -207 -1 -77 39 -142 114 -186 96
-58 195 -39 279 52 70 76 76 170 17 248 -66 86 -171 123 -265 93z"/>
<path d="M5955 5019 c-4 -6 -5 -12 -2 -15 2 -3 7 2 10 11 7 17 1 20 -8 4z"/>
<path d="M7633 4500 c-91 -21 -152 -93 -160 -188 -7 -73 17 -132 77 -185 43
-39 128 -63 186 -53 47 9 113 63 141 115 57 109 5 234 -127 301 -41 21 -64 23
-117 10z"/>
<path d="M9770 3620 c-9 -6 -10 -10 -3 -10 6 0 15 5 18 10 8 12 4 12 -15 0z"/>
<path d="M9710 3590 c-9 -6 -10 -10 -3 -10 6 0 15 5 18 10 8 12 4 12 -15 0z"/>
<path d="M9670 3570 c-9 -6 -10 -10 -3 -10 6 0 15 5 18 10 8 12 4 12 -15 0z"/>
<path d="M6000 3430 c8 -5 20 -10 25 -10 6 0 3 5 -5 10 -8 5 -19 10 -25 10 -5
0 -3 -5 5 -10z"/>
<path d="M6130 3380 c8 -5 20 -10 25 -10 6 0 3 5 -5 10 -8 5 -19 10 -25 10 -5
0 -3 -5 5 -10z"/>
<path d="M9250 3380 c-9 -6 -10 -10 -3 -10 6 0 15 5 18 10 8 12 4 12 -15 0z"/>
<path d="M6210 3350 c20 -13 33 -13 25 0 -3 6 -14 10 -23 10 -15 0 -15 -2 -2
-10z"/>
<path d="M9160 3350 c-13 -9 -13 -10 0 -10 8 0 22 5 30 10 13 9 13 10 0 10 -8
0 -22 -5 -30 -10z"/>
<path d="M9066 3319 c-68 -22 -88 -35 -37 -24 36 8 124 44 106 43 -5 0 -37 -9
-69 -19z"/>
<path d="M6330 3311 c21 -12 90 -25 70 -13 -8 5 -31 12 -50 15 -22 4 -29 3
-20 -2z"/>
<path d="M6435 3280 c11 -5 27 -9 35 -9 9 0 8 4 -5 9 -11 5 -27 9 -35 9 -9 0
-8 -4 5 -9z"/>
<path d="M8945 3280 c-13 -6 -15 -9 -5 -9 8 0 22 4 30 9 18 12 2 12 -25 0z"/>
<path d="M6500 3260 c8 -5 22 -9 30 -9 10 0 8 3 -5 9 -27 12 -43 12 -25 0z"/>
<path d="M8845 3255 c-27 -7 -68 -16 -90 -20 -22 -4 -34 -10 -27 -12 14 -5
148 24 172 38 20 11 5 10 -55 -6z"/>
<path d="M8660 3210 c-21 -7 -21 -8 -5 -9 11 0 27 4 35 9 18 11 5 11 -30 0z"/>
<path d="M6708 3203 c7 -3 16 -2 19 1 4 3 -2 6 -13 5 -11 0 -14 -3 -6 -6z"/>
<path d="M8555 3185 l-50 -14 45 6 c25 3 54 9 65 14 31 12 -4 9 -60 -6z"/>
<path d="M6868 3173 c7 -3 16 -2 19 1 4 3 -2 6 -13 5 -11 0 -14 -3 -6 -6z"/>
<path d="M6968 3153 c6 -2 18 -2 25 0 6 3 1 5 -13 5 -14 0 -19 -2 -12 -5z"/>
<path d="M7258 3143 c12 -2 32 -2 45 0 12 2 2 4 -23 4 -25 0 -35 -2 -22 -4z"/>
<path d="M7118 3133 c7 -3 16 -2 19 1 4 3 -2 6 -13 5 -11 0 -14 -3 -6 -6z"/>
<path d="M8268 3133 c6 -2 18 -2 25 0 6 3 1 5 -13 5 -14 0 -19 -2 -12 -5z"/>
<path d="M8053 3113 c9 -2 23 -2 30 0 6 3 -1 5 -18 5 -16 0 -22 -2 -12 -5z"/>
<path d="M7953 3103 c9 -2 23 -2 30 0 6 3 -1 5 -18 5 -16 0 -22 -2 -12 -5z"/>
</g>
</svg>
